SplineFontDB: 3.2
FontName: MFEKSans-Thin
FullName: MFEK Sans Thin
FamilyName: MFEK Sans Thin
Weight: Thin
Copyright: 
Version: 0.1
ItalicAngle: -13
UnderlinePosition: -200
UnderlineWidth: 100
Ascent: 1600
Descent: 400
InvalidEm: 0
LayerCount: 2
Layer: 0 0 "Back" 1
Layer: 1 0 "Fore" 0
XUID: [1021 31 -699969567 16487490]
FSType: 0
OS2Version: 0
OS2_WeightWidthSlopeOnly: 0
OS2_UseTypoMetrics: 1
CreationTime: 1460762150
ModificationTime: 1696266856
PfmFamily: 33
TTFWeight: 100
TTFWidth: 5
LineGap: 0
VLineGap: 0
OS2TypoAscent: 2500
OS2TypoAOffset: 0
OS2TypoDescent: -850
OS2TypoDOffset: 0
OS2TypoLinegap: 0
OS2WinAscent: 2500
OS2WinAOffset: 0
OS2WinDescent: 850
OS2WinDOffset: 0
HheadAscent: 2500
HheadAOffset: 0
HheadDescent: -850
HheadDOffset: 0
OS2CapHeight: 1500
OS2XHeight: 1040
OS2FamilyClass: 2053
OS2Vendor: 'it* '
OS2UnicodeRanges: 00000001.00000000.00000000.00000000
Lookup: 258 0 0 "kerning yeah boi" { "say cheese" [300,0,4] } ['kern' ('DFLT' <'dflt' > 'grek' <'dflt' > 'latn' <'dflt' > ) ]
MarkAttachClasses: 1
DEI: 91125
KernClass2: 30 23 "say cheese"
 73 A Agrave Aacute Acircumflex Atilde Adieresis Aring Amacron Abreve Aogonek
 96 D O Ograve Oacute Ocircumflex Otilde Odieresis Oslash Dcaron Dcroat Omacron Obreve Ohungarumlaut
 81 E AE Egrave Eacute Ecircumflex Edieresis Emacron Ebreve Edotaccent Eogonek Ecaron
 1 F
 39 G Gcircumflex Gbreve Gdotaccent uni0122
 104 J U Ugrave Uacute Ucircumflex Udieresis IJ Jcircumflex Utilde Umacron Ubreve Uring Uhungarumlaut Uogonek
 11 K X uni0136
 23 L Lacute uni013B Lslash
 1 P
 1 Q
 23 R Racute uni0156 Rcaron
 36 S Sacute Scircumflex Scedilla Scaron
 21 T uni0162 Tcaron Tbar
 1 V
 53 W Wcircumflex Wgrave Wacute Wdieresis uni1E86 uni1E88
 30 Y Ycircumflex Ydieresis Ygrave
 26 Z Zacute Zdotaccent Zcaron
 73 a agrave aacute acircumflex atilde adieresis aring amacron abreve aogonek

StartChar: ampersand
Encoding: 38 38 0
Width: 1280
VWidth: 1920
Flags: HMW
LayerCount: 2
Fore
SplineSet
1003 16 m 258
 607 734 l 258
 514 903 457 1030 488 1163 c 256
 520 1303 649 1435 856 1435 c 256
 1043 1435 1160 1343 1121 1173 c 256
 1079 990 925 868 696 776 c 256
 416 664 126 627 84 443 c 256
 63 354 75 294 107 219 c 258
 141 139 l 258
 177 54 285 -5 410 -5 c 256
 652 -5 928 245 1145 634 c 256
 1152 645 1158 653 1169 653 c 258
 1170 653 l 258
 1181 653 1183 645 1175 631 c 256
 946 226 671 -35 403 -35 c 256
 267 -35 151 15 106 119 c 258
 72 199 l 258
 37 279 26 347 48 443 c 256
 96 652 419 695 683 806 c 256
 927 908 1049 1012 1086 1173 c 256
 1118 1313 1026 1405 849 1405 c 256
 672 1405 554 1292 524 1163 c 256
 497 1044 550 918 645 744 c 258
 1041 21 l 258
 1048 9 1037 -3 1025 -3 c 262
 1024 -3 l 262
 1012 -3 1009 3 1003 16 c 258
EndSplineSet
EndChar

StartChar: period
Encoding: 46 46 1
Width: 540
VWidth: 1920
Flags: HMW
LayerCount: 2
Fore
SplineSet
151 -3 m 258
 147 -3 l 258
 134 -3 128 6 131 18 c 258
 171 192 l 258
 174 204 184 213 197 213 c 258
 201 213 l 258
 214 213 220 204 217 192 c 258
 177 18 l 258
 174 6 164 -3 151 -3 c 258
EndSplineSet
EndChar

StartChar: zero
Encoding: 48 48 2
Width: 1150
VWidth: 1920
Flags: HMW
LayerCount: 2
Fore
SplineSet
173 488 m 258
 271 913 l 258
 346 1239 504 1435 786 1435 c 256
 1068 1435 1136 1239 1061 913 c 258
 963 488 l 258
 888 162 728 -35 447 -35 c 256
 166 -35 98 162 173 488 c 258
208 488 m 258
 139 190 190 -5 454 -5 c 256
 718 -5 859 190 928 488 c 258
 1026 913 l 258
 1095 1211 1043 1405 779 1405 c 256
 515 1405 375 1211 306 913 c 258
 208 488 l 258
EndSplineSet
EndChar

StartChar: one
Encoding: 49 49 3
Width: 600
VWidth: 1920
Flags: HMW
LayerCount: 2
Fore
SplineSet
494 1400 m 260
 499 1408 504 1420 510 1438 c 260
 513 1446 516 1450 521 1450 c 262
 522 1450 l 262
 528 1450 529 1445 527 1436 c 262
 199 16 l 262
 196 3 191 -3 180 -3 c 262
 179 -3 l 262
 168 -3 166 3 169 16 c 262
 483 1377 l 262
 486 1388 491 1395 494 1400 c 260
EndSplineSet
EndChar

StartChar: two
Encoding: 50 50 4
Width: 1080
VWidth: 1920
Flags: HMW
LayerCount: 2
Fore
SplineSet
53 49 m 258
 162 521 897 638 988 1033 c 258
 997 1068 l 258
 1036 1238 970 1405 763 1405 c 256
 513 1405 389 1255 331 1002 c 258
 312 918 l 258
 309 905 302 899 291 899 c 258
 290 899 l 258
 279 899 274 905 277 918 c 258
 296 1002 l 258
 359 1276 493 1435 770 1435 c 256
 997 1435 1075 1253 1033 1073 c 258
 1022 1028 l 258
 928 622 186 486 84 45 c 258
 82 35 l 257
 869 35 l 258
 882 35 887 30 884 19 c 258
 884 16 l 258
 881 5 874 0 861 0 c 258
 62 0 l 258
 44 0 43 7 47 23 c 258
 53 49 l 258
EndSplineSet
EndChar

StartChar: three
Encoding: 51 51 5
Width: 1100
VWidth: 1920
Flags: HMW
LayerCount: 2
Fore
SplineSet
149 410 m 258
 150 410 l 258
 161 410 163 405 160 392 c 258
 145 327 l 258
 94 107 180 -5 409 -5 c 256
 686 -5 818 142 864 342 c 258
 876 393 l 258
 922 593 808 740 581 740 c 258
 506 740 l 258
 494 740 488 743 491 754 c 258
 491 755 l 258
 494 766 501 770 513 770 c 258
 568 770 l 258
 805 770 936 893 973 1053 c 258
 981 1088 l 258
 1025 1278 975 1405 748 1405 c 256
 538 1405 397 1265 348 1052 c 258
 328 968 l 258
 325 955 320 949 310 949 c 258
 309 949 l 258
 298 949 295 955 298 968 c 258
 318 1052 l 258
 372 1286 528 1435 755 1435 c 256
 982 1435 1068 1313 1015 1083 c 258
 1009 1058 l 258
 967 878 820 750 563 750 c 257
 585 760 l 257
 842 760 957 612 906 392 c 258
 893 337 l 258
 845 127 699 -35 402 -35 c 256
 150 -35 62 99 115 327 c 258
 130 392 l 258
 133 405 139 410 149 410 c 258
EndSplineSet
EndChar

StartChar: four
Encoding: 52 52 6
Width: 1045
VWidth: 1920
Flags: HMW
LayerCount: 2
Fore
SplineSet
927 406 m 258
 927 405 l 258
 924 394 917 390 904 390 c 258
 725 390 l 257
 639 16 l 258
 636 3 628 -3 617 -3 c 258
 616 -3 l 258
 605 -3 601 3 604 16 c 258
 690 390 l 257
 56 390 l 258
 33 390 18 395 23 415 c 258
 25 423 l 258
 27 433 33 442 45 454 c 258
 902 1389 l 258
 909 1397 917 1402 934 1402 c 258
 940 1402 l 258
 952 1402 957 1395 954 1381 c 258
 732 420 l 257
 911 420 l 258
 924 420 930 417 927 406 c 258
697 420 m 257
 915 1363 l 257
 52 420 l 257
 697 420 l 257
EndSplineSet
EndChar

StartChar: five
Encoding: 53 53 7
Width: 1100
VWidth: 1920
Flags: HMW
LayerCount: 2
Fore
SplineSet
161 371 m 258
 162 371 l 258
 173 371 174 365 173 353 c 256
 135 122 197 -5 414 -5 c 256
 663 -5 881 157 944 428 c 258
 959 493 l 258
 1019 753 898 925 704 925 c 256
 568 925 403 815 282 667 c 256
 272 655 264 650 253 650 c 257
 258 650 l 257
 246 650 242 656 247 670 c 258
 516 1376 l 258
 523 1394 529 1400 547 1400 c 258
 1128 1400 l 258
 1143 1400 1145 1396 1144 1391 c 258
 1144 1389 l 258
 1140 1373 1105 1370 937 1370 c 258
 540 1370 l 257
 277 675 l 257
 264 675 l 257
 372 818 550 955 710 955 c 256
 910 955 1063 790 994 493 c 258
 979 428 l 258
 910 131 677 -35 407 -35 c 256
 173 -35 102 101 143 352 c 256
 145 365 151 371 161 371 c 258
EndSplineSet
EndChar

StartChar: six
Encoding: 54 54 8
Width: 1229
VWidth: 1920
Flags: HMW
LayerCount: 2
Fore
SplineSet
719 860 m 256
 479 860 264 665 224 492 c 258
 210 432 l 257
 211 502 l 257
 249 666 458 890 725 890 c 256
 982 890 1088 731 1025 457 c 258
 1013 407 l 258
 949 129 793 -35 501 -35 c 256
 164 -35 131 197 191 457 c 258
 280 843 l 258
 368 1223 514 1435 841 1435 c 256
 1139 1435 1177 1266 1135 1086 c 258
 1128 1058 l 258
 1125 1045 1121 1039 1110 1039 c 258
 1109 1039 l 258
 1098 1039 1095 1044 1098 1056 c 258
 1104 1085 l 258
 1142 1248 1113 1405 834 1405 c 256
 527 1405 386 1198 303 838 c 258
 217 462 l 258
 157 202 201 -5 508 -5 c 256
 787 -5 925 157 985 417 c 258
 995 457 l 258
 1053 710 959 860 719 860 c 256
EndSplineSet
EndChar

StartChar: seven
Encoding: 55 55 9
Width: 1015
VWidth: 1920
Flags: HMW
LayerCount: 2
Fore
SplineSet
1204 1378 m 258
 246 16 l 258
 238 4 225 -6 214 -6 c 258
 209 -6 l 258
 197 -6 188 5 197 19 c 258
 1171 1370 l 257
 287 1370 l 258
 274 1370 269 1373 272 1384 c 262
 272 1385 l 262
 275 1396 281 1400 294 1400 c 258
 1195 1400 l 258
 1211 1400 1213 1392 1204 1378 c 258
EndSplineSet
EndChar

StartChar: eight
Encoding: 56 56 10
Width: 1182
VWidth: 1920
Flags: HMW
LayerCount: 2
Fore
SplineSet
470 -5 m 256
 730 -5 864 116 916 342 c 258
 929 397 l 258
 977 604 898 720 637 720 c 256
 376 720 245 604 197 397 c 258
 184 342 l 258
 132 116 210 -5 470 -5 c 256
644 750 m 256
 894 750 985 857 1030 1053 c 258
 1038 1088 l 258
 1086 1295 1013 1405 795 1405 c 256
 577 1405 454 1295 406 1088 c 258
 398 1053 l 258
 353 857 394 750 644 750 c 256
673 740 m 257
 923 740 1012 624 958 392 c 258
 947 347 l 258
 890 100 741 -35 463 -35 c 256
 185 -35 98 100 155 347 c 258
 166 392 l 258
 220 624 361 740 611 740 c 257
 611 730 l 257
 376 735 318 837 369 1058 c 258
 375 1083 l 258
 426 1304 564 1435 802 1435 c 256
 1040 1435 1118 1304 1067 1083 c 258
 1061 1058 l 258
 1010 837 906 735 669 730 c 257
 673 740 l 257
EndSplineSet
EndChar

StartChar: nine
Encoding: 57 57 11
Width: 1169
VWidth: 1920
Flags: HMW
LayerCount: 2
Fore
SplineSet
564 540 m 256
 804 540 1019 735 1059 908 c 258
 1072 968 l 257
 1071 898 l 257
 1033 734 824 510 557 510 c 256
 300 510 195 669 258 943 c 258
 269 993 l 258
 333 1271 489 1435 781 1435 c 256
 1118 1435 1152 1203 1092 943 c 258
 1003 557 l 258
 915 177 768 -35 441 -35 c 256
 143 -35 104 134 146 314 c 258
 153 342 l 258
 156 355 160 361 171 361 c 258
 172 361 l 258
 183 361 186 356 183 344 c 258
 177 315 l 258
 139 152 169 -5 448 -5 c 256
 755 -5 896 202 979 562 c 258
 1066 938 l 258
 1126 1198 1081 1405 774 1405 c 256
 495 1405 357 1243 297 983 c 258
 288 943 l 258
 230 690 324 540 564 540 c 256
EndSplineSet
EndChar

StartChar: A
Encoding: 65 65 12
Width: 1127
VWidth: 1872
Flags: HW
AnchorPoint: "ogonek" 920 0 basechar 0
AnchorPoint: "bottom" 445 0 basechar 0
AnchorPoint: "top" 777 1400 basechar 0
LayerCount: 2
Fore
SplineSet
262 508 m 261
 842 508 l 261
 835 478 l 261
 255 478 l 261
 262 508 l 261
747 1354 m 261
 9 18 l 262
 2 6 -5 -3 -16 -3 c 262
 -23 -3 l 262
 -36 -3 -40 6 -33 18 c 262
 730 1381 l 262
 737 1393 740 1400 752 1400 c 262
 754 1400 l 262
 765 1400 767.750588235 1393.07764706 769 1381 c 262
 910 18 l 262
 911 6 906 -3 893 -3 c 262
 892 -3 l 262
 881 -3 876 5 875 18 c 262
 747 1354 l 261
EndSplineSet
EndChar

StartChar: B
Encoding: 66 66 13
Width: 1145
VWidth: 1872
Flags: HW
AnchorPoint: "top" 777 1400 basechar 0
AnchorPoint: "bottom" 475 0 basechar 0
LayerCount: 2
Fore
SplineSet
314 730 m 261
 696 730 l 262
 900 730 1066.53846154 855.692307692 1104 1043 c 262
 1109 1068 l 262
 1153.46153846 1290.30769231 1056 1370 843 1370 c 262
 461 1370 l 261
 314 730 l 261
713 720 m 261
 944 720 1086.89107413 621.546142209 1027 372 c 262
 1021 347 l 262
 956 67 775 0 544 0 c 262
 138 0 l 262
 122 0 117 8 121 24 c 262
 433 1376 l 262
 437 1392 445 1400 461 1400 c 262
 850 1400 l 262
 1081 1400 1193.84615385 1322.23076923 1142 1063 c 262
 1139 1048 l 262
 1096.46153846 835.307692308 924 710 693 710 c 261
 713 720 l 261
697 700 m 262
 307 700 l 261
 152 30 l 261
 551 30 l 262
 764 30 929.81458495 91.8138091544 987 342 c 262
 995 377 l 262
 1051.83785881 625.665632273 910 700 697 700 c 262
EndSplineSet
EndChar

StartChar: C
Encoding: 67 67 14
Width: 1244
VWidth: 1872
Flags: HW
AnchorPoint: "top" 877 1400 basechar 0
AnchorPoint: "bottom" 529 -25 basechar 0
LayerCount: 2
Fore
SplineSet
1140 503 m 0
 1130 466 1114 430 1099 393 c 0
 1023 195 766 -34 517 -34 c 0
 160 -34 65.2883619231 232.933571075 151 605 c 2
 195 796 l 2
 281 1170 509 1434 846 1434 c 0
 1090 1434 1224 1314.00390625 1224 1148 c 0
 1224 1081 1194 995 1178 968 c 0
 1173 960 1165 954 1158 954 c 2
 1157 954 l 2
 1150 954 1144 960 1148 968 c 0
 1284 1270 1079 1404 849 1404 c 0
 530 1404 306 1148 225 796 c 2
 181 605 l 2
 100 254 188 -4 516 -4 c 0
 725 -4 1018 192 1106 503 c 0
 1108 512 1115 520 1124 520 c 2
 1125 520 l 2
 1135 520 1142 512 1140 503 c 0
EndSplineSet
EndChar

StartChar: D
Encoding: 68 68 15
Width: 1229
VWidth: 1872
Flags: HW
AnchorPoint: "top" 807 1400 basechar 0
AnchorPoint: "bottom" 465 0 basechar 0
LayerCount: 2
Fore
SplineSet
495 0 m 2
 127 0 l 2
 110 0 101.174157303 14.4213483146 105 31 c 2
 414 1370 l 2
 419.361793112 1393.22305297 433 1400 449 1400 c 2
 818 1400 l 2
 1093 1400 1236 1165 1151 795 c 2
 1107 606 l 2
 1022 236 805 0 495 0 c 2
502 30 m 2
 786 30 1000.24408455 273.554001472 1077 605 c 2
 1121 795 l 2
 1206.66557998 1164.9195499 1068 1370 811 1370 c 2
 444 1370 l 1
 135 30 l 1
 502 30 l 2
EndSplineSet
EndChar

StartChar: E
Encoding: 69 69 16
Width: 1162
VWidth: 1872
Flags: HW
AnchorPoint: "ogonek" 916 0 basechar 0
AnchorPoint: "top" 837 1400 basechar 0
AnchorPoint: "bottom" 515 0 basechar 0
LayerCount: 2
Fore
SplineSet
297 730 m 1
 829 730 l 2
 838 730 842 723 842 716 c 2
 842 714 l 2
 842 707 837 700 827 700 c 2
 290 700 l 1
 135 30 l 1
 924 30 l 2
 931 30 939 26 939 15 c 2
 939 14 l 2
 939 4 930 0 923 0 c 2
 107 0 l 2
 100 0 98 3 100 10 c 2
 414 1368 l 2
 420.027669913 1394.06871255 433 1400 460 1400 c 2
 1220 1400 l 2
 1228 1400 1235 1395 1235 1386 c 2
 1235 1385 l 2
 1235 1375 1225 1370 1218 1370 c 2
 444 1370 l 1
 297 730 l 1
EndSplineSet
EndChar

StartChar: F
Encoding: 70 70 17
Width: 1066
VWidth: 1872
Flags: HW
AnchorPoint: "top" 847 1400 basechar 0
AnchorPoint: "bottom" 525 0 basechar 0
LayerCount: 2
Fore
SplineSet
297 730 m 1
 750 730 l 2
 758 730 766 726 766 716 c 2
 766 715 l 2
 766 705 757 700 749 700 c 2
 290 700 l 1
 131 14 l 6
 127.378646318 -1.62420519605 123 -10 114 -10 c 6
 113 -10 l 6
 105 -10 97.6084644135 -0.678478776087 101 14 c 2
 412 1360 l 2
 419.560764312 1392.71484558 428 1400 460 1400 c 2
 1180 1400 l 2
 1190 1400 1196 1396 1196 1386 c 2
 1196 1385 l 2
 1196 1375 1190 1370 1180 1370 c 2
 444 1370 l 1
 297 730 l 1
EndSplineSet
EndChar

StartChar: G
Encoding: 71 71 18
Width: 1223
VWidth: 1872
Flags: HW
AnchorPoint: "top" 847 1400 basechar 0
AnchorPoint: "bottom" 505 0 basechar 0
LayerCount: 2
Fore
SplineSet
718 640 m 2
 718 641 l 2
 718 648 724 655 735 655 c 2
 1088 655 l 2
 1107 655 1116.58975728 648.169795548 1111 624 c 2
 969 10 l 2
 967 3 964 -3 957 -3 c 6
 956 -3 l 6
 949 -3 945 3 947 10 c 2
 1073 586 l 1
 1100 621 l 1
 990 227 747 -34 461 -34 c 0
 134 -34 26 231 113 606 c 2
 157 795 l 2
 243 1169 490 1434 827 1434 c 0
 996 1434 1123 1342 1167 1210 c 0
 1192 1134 1197 1045 1180 968 c 0
 1178 959 1173 952 1164 952 c 2
 1163 952 l 2
 1155 952 1149 959 1151 968 c 0
 1199 1212 1072 1404 830 1404 c 0
 503 1404 266 1137 187 795 c 2
 143 606 l 2
 59 243 158 -4 467 -4 c 0
 657 -4 948 154 1083 645 c 1
 1089 625 l 1
 736 625 l 2
 725 625 718 633 718 640 c 2
EndSplineSet
EndChar

StartChar: H
Encoding: 72 72 19
Width: 1227
VWidth: 1872
Flags: HW
AnchorPoint: "top" 827 1400 basechar 0
AnchorPoint: "bottom" 505 0 basechar 0
LayerCount: 2
Fore
SplineSet
1233 1403 m 262
 1234 1403 l 262
 1246 1403 1247 1396 1244 1384 c 262
 928 16 l 262
 925 4 921 -3 909 -3 c 262
 908 -3 l 262
 896 -3 895 4 898 16 c 262
 1056 700 l 261
 272 700 l 261
 114 16 l 262
 111 4 106 -3 94 -3 c 262
 93 -3 l 262
 81 -3 81 4 84 16 c 262
 400 1384 l 262
 403 1396 407 1403 419 1403 c 262
 420 1403 l 262
 432 1403 433 1396 430 1384 c 262
 279 730 l 261
 1063 730 l 261
 1214 1384 l 262
 1217 1396 1221 1403 1233 1403 c 262
EndSplineSet
EndChar

StartChar: I
Encoding: 73 73 20
Width: 506
VWidth: 1872
Flags: HW
AnchorPoint: "ogonek" 130 0 basechar 0
AnchorPoint: "top" 452 1400 basechar 0
AnchorPoint: "bottom" 130 0 basechar 0
LayerCount: 2
Fore
SplineSet
443 1403 m 262
 445 1403 l 262
 456 1403 458 1397 455 1384 c 262
 139 16 l 262
 136 3 131 -3 120 -3 c 262
 118 -3 l 262
 107 -3 106 3 109 16 c 262
 425 1384 l 262
 428 1397 432 1403 443 1403 c 262
EndSplineSet
EndChar

StartChar: J
Encoding: 74 74 21
Width: 795
VWidth: 1872
Flags: HW
AnchorPoint: "top" 796 1400 basechar 0
AnchorPoint: "bottom" 240 0 basechar 0
LayerCount: 2
Fore
SplineSet
760 1404 m 2
 761 1404 l 2
 775 1404 780.832766018 1393.57622664 777 1377 c 2
 580 525 l 2
 492.840876653 148.036791525 440 -34 207 -34 c 0
 2 -34 -97.3052533654 102.032552115 68 376 c 2
 211 613 l 2
 216.22405962 621.658056853 222 629 231 629 c 2
 232 629 l 2
 244 629 250.072489493 619.749510559 246 613 c 2
 103 376 l 2
 -55.5909588947 113.160438755 23 1 207 1 c 0
 413 1 461.79649924 182.81578174 534 495 c 2
 739 1381 l 2
 741.737124509 1392.82971861 749 1404 760 1404 c 2
EndSplineSet
EndChar

StartChar: K
Encoding: 75 75 22
Width: 1138
VWidth: 1872
Flags: HW
AnchorPoint: "top" 777 1400 basechar 0
AnchorPoint: "bottom" 465 0 basechar 0
LayerCount: 2
Fore
SplineSet
418 1403 m 262
 420 1403 l 262
 431 1403 433 1397 430 1384 c 262
 114 16 l 262
 111 3 106 -3 95 -3 c 262
 93 -3 l 262
 82 -3 81 3 84 16 c 262
 400 1384 l 262
 403 1397 407 1403 418 1403 c 262
555 826 m 261
 582 847 l 261
 919 20 l 262
 924.74697366 5.89689253139 918 -3 905 -3 c 262
 903 -3 l 262
 894 -3 888.740504309 2.30003191829 884 14 c 262
 555 826 l 261
1196 1388 m 262
 1206 1396 1214 1403 1222 1403 c 262
 1223 1403 l 262
 1233 1403 1243 1393 1228 1381 c 262
 584 826 l 261
 572 816 l 261
 208 513 l 261
 216 556 l 261
 1196 1388 l 262
EndSplineSet
EndChar

StartChar: L
Encoding: 76 76 23
Width: 1011
VWidth: 1872
Flags: HW
AnchorPoint: "top" 467 1400 basechar 0
AnchorPoint: "bottom" 525 0 basechar 0
LayerCount: 2
Fore
SplineSet
418 1403 m 262
 420 1403 l 262
 430 1403 432 1397 429 1383 c 262
 117 30 l 261
 803 30 l 262
 816 30 821 26 821 16 c 262
 821 15 l 262
 821 5 816 0 803 0 c 262
 101 0 l 262
 87 0 82 7 85 21 c 262
 399 1383 l 262
 402 1397 409 1403 418 1403 c 262
EndSplineSet
EndChar

StartChar: M
Encoding: 77 77 24
Width: 1422
VWidth: 1872
Flags: HW
AnchorPoint: "top" 957 1400 basechar 0
AnchorPoint: "bottom" 652 0 basechar 0
LayerCount: 2
Fore
SplineSet
409 1336 m 261
 105 17 l 262
 102 4 97 -3 86 -3 c 262
 85 -3 l 262
 74 -3 73 4 76 17 c 262
 391 1382 l 262
 394 1394 401 1401 413 1401 c 262
 417 1401 l 262
 428 1401 434 1396 436 1383 c 262
 636 44 l 261
 1428 1381 l 262
 1437.09403507 1396.35192537 1442 1401 1454 1401 c 262
 1456 1401 l 262
 1470 1401 1477 1395 1474 1383 c 262
 1161 16 l 262
 1158 4 1153 -3 1142 -3 c 262
 1141 -3 l 262
 1130 -3 1128 4 1131 16 c 262
 1433 1336 l 261
 652 14 l 262
 647 4 637 1 629 1 c 262
 620 1 l 262
 612 1 606.493730474 3.92494037288 605 14 c 262
 409 1336 l 261
EndSplineSet
EndChar

StartChar: N
Encoding: 78 78 25
Width: 1227
VWidth: 1872
Flags: HW
AnchorPoint: "top" 897 1400 basechar 0
AnchorPoint: "bottom" 565 0 basechar 0
LayerCount: 2
Fore
SplineSet
1268 1403 m 262
 1269 1403 l 262
 1280 1403 1285 1398 1282 1386 c 262
 965 12 l 262
 962 1 957 -3 949 -3 c 262
 937 -3 l 262
 928 -3 923 2 919 13 c 262
 417 1379 l 261
 428 1376 l 261
 113 16 l 262
 110 4 107 -3 96 -3 c 262
 95 -3 l 262
 84 -3 80 4 83 16 c 262
 399 1382 l 262
 402 1395 410 1402 422 1402 c 262
 426 1402 l 262
 437 1402 442 1396 448 1383 c 262
 950 33 l 261
 940 36 l 261
 1252 1386 l 262
 1255 1398 1257 1403 1268 1403 c 262
EndSplineSet
EndChar

StartChar: O
Encoding: 79 79 26
Width: 1317
VWidth: 1872
Flags: HW
AnchorPoint: "top" 881 1400 basechar 0
AnchorPoint: "bottom" 559 0 basechar 0
LayerCount: 2
Fore
SplineSet
138 603 m 2
 183 798 l 2
 270 1177 530 1434 862 1434 c 0
 1194 1434 1333 1176 1246 798 c 2
 1201 603 l 2
 1114 224 855 -34 523 -34 c 0
 191 -34 51 224 138 603 c 2
168 602 m 2
 85 243 208 -4 523 -4 c 4
 828 -4 1088 243 1171 602 c 2
 1216 799 l 2
 1299 1158 1174 1404 858 1404 c 4
 552 1404 296 1159 213 799 c 2
 168 602 l 2
EndSplineSet
EndChar

StartChar: P
Encoding: 80 80 27
Width: 1141
VWidth: 1872
Flags: HW
AnchorPoint: "top" 787 1400 basechar 0
AnchorPoint: "bottom" 115 0 basechar 0
LayerCount: 2
Fore
SplineSet
444 1370 m 1
 286 684 l 1
 647 684 l 2
 878 684 1015 736 1072 982 c 2
 1089 1057 l 2
 1146 1303 1047 1370 805 1370 c 2
 444 1370 l 1
810 1400 m 2
 1062 1400 1181 1324 1119 1057 c 2
 1102 982 l 2
 1040 715 889 654 639 654 c 2
 279 654 l 1
 131 14 l 2
 128.264340539 2.17012125032 121 -3 114 -3 c 2
 113 -3 l 2
 106 -3 98.4858441751 3.11879826266 101 14 c 6
 412 1360 l 2
 420.218942789 1395.56273322 423 1400 460 1400 c 2
 810 1400 l 2
EndSplineSet
EndChar

StartChar: Q
Encoding: 81 81 28
Width: 1438
VWidth: 1872
Flags: HW
AnchorPoint: "top" 883 1400 basechar 0
AnchorPoint: "bottom" 561 0 basechar 0
LayerCount: 2
Fore
SplineSet
1279 16 m 6
 1279 15 l 6
 1279 6 1274 0 1262 -3 c 0
 1046 -54 1053 128 1113 387 c 1
 1178 573 l 1
 1099 232 877 -34 506 -34 c 0
 160 -34 67 261 146 602 c 2
 191 799 l 2
 270 1141 491 1434 862 1434 c 0
 1233 1434 1319 1151 1240 809 c 2
 1127 320 l 2
 1072.22131089 82.9488586288 1122 -11 1262 28 c 0
 1274.18514745 31.3944339314 1279 23 1279 16 c 6
1149 544 m 2
 1210 809 l 2
 1280 1112 1211 1404 867 1404 c 0
 523 1404 296 1122 222 800 c 2
 176 601 l 2
 102 281 175 -4 520 -4 c 0
 839 -4 1082 252 1149 544 c 2
EndSplineSet
EndChar

StartChar: R
Encoding: 82 82 29
Width: 1231
VWidth: 1872
Flags: HW
AnchorPoint: "top" 827 1400 basechar 0
AnchorPoint: "bottom" 525 0 basechar 0
LayerCount: 2
Fore
SplineSet
444 1370 m 5
 295 725 l 5
 708 725 l 6
 871 725 1041 816 1084 1003 c 6
 1094 1048 l 6
 1142 1254 1074 1370 857 1370 c 6
 444 1370 l 5
864 1400 m 6
 1081 1400 1176 1274 1124 1047 c 6
 1116 1014 l 6
 1061.13096271 787.665221162 911 710 705 710 c 5
 707 720 l 5
 930 720 1025 663 971 429 c 6
 947 323 l 6
 921 209 921.516433202 90.208916995 948 24 c 4
 952 14 952 12 952 10 c 6
 952 9 l 6
 952 1 944 -4 936 -4 c 6
 935 -4 l 6
 927 -4 920 0 917 9 c 4
 889 105 885 195 915 323 c 6
 939 430 l 6
 993 662 893 704 704 704 c 6
 291 704 l 5
 130 10 l 6
 127.696451827 0.0704196770018 120 -5 113 -5 c 6
 112 -5 l 6
 105 -5 97.946689731 1.47462963829 102 19 c 6
 414 1368 l 6
 418.930231217 1389.32246495 428 1400 450 1400 c 6
 864 1400 l 6
EndSplineSet
EndChar

StartChar: S
Encoding: 83 83 30
Width: 1133
VWidth: 1872
Flags: HW
AnchorPoint: "top" 777 1400 basechar 0
AnchorPoint: "bottom" 449 -25 basechar 0
LayerCount: 2
Fore
SplineSet
141 512 m 2
 142 512 l 2
 152 512 158 503 155 491 c 0
 148.764428419 466.057713676 147.804152948 451.793214851 141 427 c 0
 68 161 153 -4 447 -4 c 0
 693 -4 876 106 929 336 c 0
 985 577 772 617 625 680 c 0
 441 759 243 835 299 1078 c 0
 349 1296 525 1434 766 1434 c 0
 1048 1434 1118 1259 1069 1046 c 2
 1053 977 l 2
 1049.3771178 961.37632051 1044 956 1035 956 c 2
 1034 956 l 2
 1027 956 1019 961 1023 977 c 0
 1029.47165767 1002.88663066 1030.26019618 1006.94047498 1037 1037 c 0
 1087 1260 1015 1404 759 1404 c 0
 556 1404 382 1285 334 1078 c 0
 281 850 478 776 647 708 c 0
 828 634 1021 581 964 336 c 0
 907 90 734 -34 440 -34 c 0
 130 -34 46 148 100 381 c 2
 125 491 l 2
 128.339882122 505.695481336 133 512 141 512 c 2
EndSplineSet
EndChar

StartChar: T
Encoding: 84 84 31
Width: 1071
VWidth: 1872
Flags: HW
AnchorPoint: "top" 762 1400 basechar 0
AnchorPoint: "bottom" 440 0 basechar 0
LayerCount: 2
Fore
SplineSet
248 1400 m 262
 1223 1400 l 262
 1236 1400 1241 1395 1241 1385 c 262
 1241 1384 l 262
 1241 1374 1236 1370 1223 1370 c 262
 744 1370 l 261
 432 16 l 262
 429 3 424 -3 413 -3 c 262
 411 -3 l 262
 400 -3 399 3 402 16 c 262
 714 1370 l 261
 248 1370 l 262
 235 1370 230 1374 230 1384 c 262
 230 1385 l 262
 230 1395 235 1400 248 1400 c 262
EndSplineSet
EndChar

StartChar: U
Encoding: 85 85 32
Width: 1236
VWidth: 1872
Flags: HW
AnchorPoint: "ogonek" 680 0 basechar 0
AnchorPoint: "top" 837 1400 basechar 0
AnchorPoint: "bottom" 515 0 basechar 0
LayerCount: 2
Fore
SplineSet
977 472 m 2
 1187 1381 l 2
 1190.82973663 1397.57728857 1194 1405 1204 1405 c 2
 1205 1405 l 2
 1215 1405 1220.60301818 1396.63048467 1217 1381 c 2
 1010 483 l 2
 938 172 826 -34 483 -34 c 0
 149 -34 141 170 226 540 c 2
 419 1377 l 2
 422.823022751 1393.57963753 426 1405 437 1405 c 2
 438 1405 l 2
 454 1405 452.957017828 1389.77854133 450 1377 c 2
 254 530 l 2
 182 220 160 -4 485 -4 c 0
 791 -4 910 182 977 472 c 2
EndSplineSet
EndChar

StartChar: V
Encoding: 86 86 33
Width: 1129
VWidth: 1872
Flags: HW
AnchorPoint: "top" 797 1400 basechar 0
AnchorPoint: "bottom" 475 0 basechar 0
LayerCount: 2
Fore
SplineSet
463 46 m 1
 1200 1381 l 2
 1207.47048758 1394.53202296 1212 1405 1225 1405 c 2
 1226 1405 l 2
 1239 1405 1244.82818435 1391.41778454 1239 1381 c 2
 472 10 l 2
 465.31963832 -1.94103763073 460 -5 454 -5 c 2
 453 -5 l 2
 447 -5 439.93288627 0.993048760268 439 10 c 2
 297 1381 l 2
 295.349790636 1396.93265519 306 1405 314 1405 c 2
 315 1405 l 2
 328 1405 331.842437296 1392.88727854 333 1381 c 2
 463 46 l 1
EndSplineSet
EndChar

StartChar: W
Encoding: 87 87 34
Width: 1597
VWidth: 1872
Flags: HW
AnchorPoint: "top" 1045 1400 basechar 0
AnchorPoint: "bottom" 723 0 basechar 0
LayerCount: 2
Fore
SplineSet
371 60 m 1
 991 1381 l 2
 997.695428519 1395.26558238 1004 1403 1017 1403 c 2
 1018 1403 l 2
 1032 1403 1037.62302821 1393.98984208 1038 1380 c 2
 1074 44 l 1
 1665 1381 l 2
 1671.77664881 1396.33059129 1678 1403 1684 1403 c 2
 1685 1403 l 2
 1694 1403 1699.16836237 1395.04788173 1693 1381 c 2
 1095 20 l 2
 1088.82848468 5.95412649751 1081 -3 1066 -3 c 2
 1065 -3 l 2
 1052 -3 1046.42858259 4.01148843871 1046 20 c 2
 1010 1363 l 1
 386 20 l 2
 379.557764275 6.13473945805 374 -3 360 -3 c 2
 358 -3 l 2
 346 -3 340.308692682 5.00635543757 340 20 c 2
 312 1380 l 2
 311.713988083 1393.9941545 317 1403 329 1403 c 2
 330 1403 l 2
 342 1403 345.735302133 1393.97604739 346 1380 c 2
 371 60 l 1
EndSplineSet
EndChar

StartChar: X
Encoding: 88 88 35
Width: 1128
VWidth: 1872
Flags: HW
AnchorPoint: "top" 797 1400 basechar 0
AnchorPoint: "bottom" 475 0 basechar 0
LayerCount: 2
Fore
SplineSet
1174 1403 m 2
 1176 1403 l 2
 1188 1403 1196.22067179 1393.48911085 1185 1380 c 2
 631 714 l 1
 894 20 l 2
 899.678704805 5.01512876608 892 -3 881 -3 c 2
 880 -3 l 2
 871 -3 864.16576152 1.18363783846 859 15 c 2
 607 689 l 1
 23 10 l 2
 15.0798207698 0.791435449827 9 -3 3 -3 c 2
 2 -3 l 2
 -14 -3 -14 12 -6 20 c 2
 594 716 l 1
 337 1380 l 2
 331.223209618 1394.9252483 342 1403 352 1403 c 2
 353 1403 l 2
 365 1403 369.442827443 1394.65072765 375 1380 c 2
 617 742 l 1
 1147 1380 l 2
 1158.70563302 1394.09093182 1166 1403 1174 1403 c 2
EndSplineSet
EndChar

StartChar: Y
Encoding: 89 89 36
Width: 1125
VWidth: 1872
Flags: HW
AnchorPoint: "top" 787 1400 basechar 0
AnchorPoint: "bottom" 460 0 basechar 0
LayerCount: 2
Fore
SplineSet
1218 1403 m 6
 1219 1403 l 6
 1231 1403 1237.52665716 1393.45978145 1227 1380 c 6
 581 554 l 5
 457 19 l 6
 453.378685747 3.37578124741 450 -3 441 -3 c 6
 440 -3 l 6
 432 -3 426.378685747 3.37578124741 430 19 c 6
 554 554 l 5
 280 1381 l 6
 274.926520906 1396.31301902 284 1403 292 1403 c 6
 293 1403 l 6
 302 1403 306.021214353 1396.01207992 311 1381 c 6
 574 588 l 5
 1189 1380 l 6
 1199.49211876 1393.51180172 1209 1403 1218 1403 c 6
EndSplineSet
EndChar

StartChar: Z
Encoding: 90 90 37
Width: 1066
VWidth: 1872
Flags: HW
AnchorPoint: "top" 757 1400 basechar 0
AnchorPoint: "bottom" 435 0 basechar 0
LayerCount: 2
Fore
SplineSet
-83 22 m 262
 1138 1370 l 261
 316 1370 l 262
 305 1370 299 1373 299 1384 c 262
 299 1385 l 262
 299 1396 305 1400 316 1400 c 262
 1186 1400 l 262
 1200 1400 1207.40603047 1390.63044294 1195 1377 c 262
 -28 30 l 261
 875 30 l 262
 887 30 893 27 893 16 c 262
 893 15 l 262
 893 4 887 0 875 0 c 262
 -78 0 l 262
 -91 0 -94.8296492233 8.93991224159 -83 22 c 262
EndSplineSet
EndChar

StartChar: a
Encoding: 97 97 38
Width: 964
VWidth: 1879
Flags: HW
AnchorPoint: "ogonek" 764 0 basechar 0
AnchorPoint: "top" 620 1050 basechar 0
AnchorPoint: "bottom" 429 0 basechar 0
LayerCount: 2
Fore
SplineSet
777 406 m 1
 720 161 547 -33 310 -33 c 0
 111 -33 -18 123 54 434 c 2
 96 614 l 2
 173 946 368 1084 567 1084 c 0
 777 1084 888 884 831 639 c 1
 811 620 l 1
 859 826 797 1054 568 1054 c 0
 367 1054 195.955394642 916.474438812 126 615 c 2
 84 434 l 2
 17 144 127 -3 308 -3 c 0
 563 -3 719 221 766 426 c 1
 777 406 l 1
797 16 m 2
 797 15 l 2
 797 6 789 2 782 1 c 0
 700 -15 678 43 725 247 c 2
 826 686 l 2
 924 1074 l 2
 926 1082 929 1087 934 1087 c 2
 935 1087 l 2
 944 1087 947.387640449 1080.67977528 944 1066 c 2
 755 247 l 2
 711 56 728.364279288 18.6364279288 782 25 c 4
 791.979880349 26.1840558311 797 22 797 16 c 2
EndSplineSet
EndChar

StartChar: b
Encoding: 98 98 39
Width: 1055
VWidth: 1879
Flags: HW
LayerCount: 2
Fore
SplineSet
346 1453 m 262
 347 1453 l 262
 358 1453 362 1447 359 1435 c 262
 115 376 l 261
 23 -17 l 262
 20 -30 14 -34 5 -34 c 262
 4 -34 l 262
 -5 -34 -10 -31 -7 -20 c 262
 329 1435 l 262
 332 1447 335 1453 346 1453 c 262
162 644 m 5
 223 908 475 1084 684 1084 c 4
 883 1084 1080 946 1004 616 c 6
 963 436 l 6
 891 123 639 -33 440 -33 c 4
 204 -33 49 157 108 411 c 5
 127 430 l 5
 73 196 205 -4 439 -4 c 4
 620 -4 865 143 932 435 c 6
 974 616 l 6
 1045 924 863 1054 682 1054 c 4
 466 1054 226 858 172 624 c 5
 162 644 l 5
EndSplineSet
EndChar

StartChar: c
Encoding: 99 99 40
Width: 954
VWidth: 1879
Flags: HW
AnchorPoint: "bottom" 397 -25 basechar 0
AnchorPoint: "top" 631 1050 basechar 0
LayerCount: 2
Fore
SplineSet
874 371 m 0
 850.211571712 289.538860545 817 223 760 154 c 0
 670 45 536 -34 367 -34 c 0
 121 -34 -17 165 50 457 c 2
 81 594 l 2
 146.85418145 885.032995438 375 1083 621 1083 c 0
 812 1083 939 968 939 854 c 0
 939 788.197265625 919 729 866 670 c 0
 862.592777777 666.207054507 856 657 848 657 c 2
 846 657 l 2
 834 657 831.374144683 668.700916321 841 679 c 0
 894.780697092 736.542096931 912 792.869140625 912 854 c 0
 912 968 775 1058 615 1058 c 0
 383 1058 168.935220251 856.783137333 108 594 c 2
 76 456 l 2
 14 188 134 -7 374 -7 c 0
 522 -7 655 67 739 169 c 0
 794 236 830.433193255 309.76512581 848 372 c 0
 851.000492531 382.6300068 852 392 862 392 c 2
 863 392 l 2
 872 392 877.375429363 382.558826784 874 371 c 0
EndSplineSet
EndChar

StartChar: d
Encoding: 100 100 41
Width: 1055
VWidth: 1879
Flags: HW
LayerCount: 2
Fore
SplineSet
897 408 m 5
 840 162 598 -34 360 -34 c 4
 162 -34 -18 122 54 435 c 6
 96 615 l 6
 172 946 427 1084 626 1084 c 4
 834 1084 1008 888 951 642 c 5
 932 623 l 5
 980 829 852 1054 624 1054 c 4
 443 1054 197 924 126 615 c 6
 84 435 l 6
 17 144 182 -4 363 -4 c 4
 618 -4 839 221 887 427 c 5
 897 408 l 5
1149 1434 m 262
 822 16 l 262
 819 4 817 -3 806 -3 c 262
 805 -3 l 262
 794 -3 795 4 798 16 c 262
 879 370 l 261
 881 402 l 261
 1119 1434 l 262
 1122 1446 1126 1453 1137 1453 c 262
 1138 1453 l 262
 1149 1453 1152 1446 1149 1434 c 262
EndSplineSet
EndChar

StartChar: e
Encoding: 101 101 42
Width: 1044
VWidth: 1879
Flags: HW
AnchorPoint: "ogonek" 668 20 basechar 0
AnchorPoint: "bottom" 482 0 basechar 0
AnchorPoint: "top" 675 1050 basechar 0
LayerCount: 2
Fore
SplineSet
915 322 m 4
 899.783163352 280.265306813 887.245464781 254.859601548 866 218 c 4
 783 74 637 -34 419 -34 c 4
 191 -34 14 135 84 438 c 6
 124 612 l 6
 192 906 446 1084 653 1084 c 4
 905 1084 1006 898 987 682 c 4
 980 608 975.849546778 591.247733889 968 552 c 4
 965 537 957 525 937 525 c 6
 118 525 l 5
 125 553 l 5
 941 553 l 5
 1014 886 876 1059 659 1059 c 4
 452 1059 216 876 155 613 c 6
 114 438 l 6
 53 175 181 -9 424 -9 c 4
 640 -9 814.329191374 124.057490006 882 325 c 4
 886.469119698 338.270657583 891 346 899 346 c 6
 900 346 l 6
 910 346 920.523450323 337.148976749 915 322 c 4
EndSplineSet
EndChar

StartChar: f
Encoding: 102 102 43
Width: 599
VWidth: 1879
Flags: HW
LayerCount: 2
Fore
SplineSet
673 1025 m 262
 196 1025 l 262
 183 1025 177 1029 177 1037 c 262
 177 1038 l 262
 177 1046 183 1050 196 1050 c 262
 673 1050 l 262
 686 1050 692 1046 692 1038 c 261
 692 1037 l 261
 692 1028 686 1025 673 1025 c 262
398 1194 m 2
 445 1397 500 1506 765 1444 c 0
 773.817704487 1441.93698989 783 1438 783 1431 c 2
 783 1430 l 2
 783 1420 774.695823832 1415.03081539 762 1418 c 0
 514 1476 477 1383 433 1194 c 2
 79 -338 l 2
 75.1695365524 -354.577033903 70 -363 59 -363 c 2
 57 -363 l 2
 46 -363 40.3888947313 -353.627721106 44 -338 c 2
 398 1194 l 2
EndSplineSet
EndChar

StartChar: g
Encoding: 103 103 44
Width: 833
VWidth: 1879
Flags: HW
AnchorPoint: "top" 511 1100 basechar 0
LayerCount: 2
Fore
SplineSet
935 1243 m 256
 876 1057 773 1011 729 1011 c 257
 703 1021 l 257
 756 1021 855 1071 905 1245 c 256
 909 1258 916 1263 924 1263 c 258
 925 1263 l 258
 934 1263 939 1257 935 1243 c 256
474 188 m 2
 623.893701015 174.793506519 689 82 659 -46 c 0
 618 -224 449 -360 182 -360 c 2
 160 -360 l 2
 -25 -360 -178 -270 -135 -84 c 0
 -101 63 37 174 171 204 c 1
 180 187 l 1
 47 157 -71 39 -102 -96 c 0
 -142 -269 20 -330 157 -330 c 2
 179 -330 l 2
 418 -330 586 -195 622 -39 c 0
 647 68 607.035565849 144.389446041 458 158 c 2
 239 178 l 2
 103 190 20 225 40 310 c 0
 64 413 199 446 367 494 c 1
 367 484 l 1
 233 427 92 406 70 312 c 0
 54 242 146 217 247 208 c 2
 474 188 l 2
765 759 m 2
 773 791 l 2
 811 954 699 1054 533 1054 c 0
 362 1054 206 947 170 791 c 2
 162 759 l 2
 130 622 235 504 406 504 c 0
 572 504 732 614 765 759 c 2
795 751 m 2
 761 602 595 474 398 474 c 0
 201 474 98 620 132 769 c 2
 140 801 l 2
 179 969 342 1084 539 1084 c 0
 736 1084 842 951 803 783 c 2
 795 751 l 2
EndSplineSet
EndChar

StartChar: h
Encoding: 104 104 45
Width: 953
VWidth: 1879
Flags: HW
AnchorPoint: "bottom" 375 0 basechar 0
AnchorPoint: "top" 356 1450 basechar 0
LayerCount: 2
Fore
SplineSet
351 1453 m 262
 353 1453 l 262
 364 1453 366 1447 363 1434 c 262
 36 16 l 262
 33 3 27 -3 16 -3 c 262
 15 -3 l 262
 4 -3 3 3 6 16 c 262
 333 1434 l 262
 336 1447 340 1453 351 1453 c 262
159 634 m 261
 212 864 411 1085 645 1085 c 260
 841 1085 934 963 881 733 c 262
 716 16 l 262
 713 3 708 -3 697 -3 c 262
 695 -3 l 262
 684 -3 683 3 686 16 c 262
 851 733 l 262
 899 943 825 1060 647 1060 c 260
 418 1060 226 842 178 632 c 261
 159 634 l 261
EndSplineSet
EndChar

StartChar: i
Encoding: 105 105 46
Width: 261
VWidth: 1879
Flags: HW
AnchorPoint: "bottom" 5 0 basechar 0
AnchorPoint: "ogonek" 5 0 basechar 0
LayerCount: 2
Fore
SplineSet
350 1394 m 258
 312 1229 l 258
 309 1217 303 1210 290 1210 c 258
 289 1210 l 258
 276 1210 275 1217 278 1229 c 258
 316 1394 l 258
 319 1406 323 1414 336 1414 c 258
 338 1414 l 258
 351 1414 353 1406 350 1394 c 258
265 1034 m 262
 30 16 l 262
 27 3 22 -3 11 -3 c 262
 9 -3 l 262
 -2 -3 -3 3 0 16 c 262
 235 1034 l 262
 238 1047 242 1053 253 1053 c 262
 255 1053 l 262
 266 1053 268 1047 265 1034 c 262
EndSplineSet
EndChar

StartChar: j
Encoding: 106 106 47
Width: 261
VWidth: 1879
Flags: HW
LayerCount: 2
Fore
SplineSet
12 -59 m 6
 -37 -271 -110 -371 -209 -371 c 4
 -338 -371 -269 -200 -204 -107 c 4
 -200.914996911 -102.586072504 -198 -97 -191 -97 c 6
 -190 -97 l 6
 -180 -97 -176.020138511 -104.887543169 -181 -112 c 4
 -242.686741338 -200.10371247 -291 -340 -201 -340 c 4
 -103 -340 -47 -185 -18 -60 c 6
 234 1030 l 6
 237.832336745 1046.57637719 241 1053 250 1053 c 6
 251 1053 l 6
 262 1053 267.3963047 1044.67688817 264 1030 c 6
 12 -59 l 6
350 1394 m 258
 312 1229 l 258
 309 1217 303 1210 290 1210 c 258
 289 1210 l 258
 276 1210 275 1217 278 1229 c 258
 316 1394 l 258
 319 1406 323 1414 336 1414 c 258
 338 1414 l 258
 351 1414 353 1406 350 1394 c 258
EndSplineSet
EndChar

StartChar: k
Encoding: 107 107 48
Width: 849
VWidth: 1879
Flags: HW
LayerCount: 2
Fore
SplineSet
347 1453 m 262
 349 1453 l 262
 360 1453 361 1444 358 1431 c 262
 32 18 l 262
 29 5 24 -3 13 -3 c 262
 11 -3 l 262
 0 -3 -1 6 2 19 c 262
 328 1431 l 262
 331 1444 336 1453 347 1453 c 262
100 406 m 261
 842 1036 l 262
 856 1049 860 1053 869 1053 c 262
 870 1053 l 262
 882 1053 892.224555542 1037.36069681 874 1022 c 262
 104 373 l 261
 100 406 l 261
364 615 m 261
 390 637 l 261
 722 21 l 262
 729.840055368 6.4533912453 723 -3 712 -3 c 262
 710 -3 l 262
 699 -3 694.733828022 3.39682879703 689 14 c 262
 364 615 l 261
EndSplineSet
EndChar

StartChar: l
Encoding: 108 108 49
Width: 280
VWidth: 1879
Flags: W
HStem: -3 21G<12.8076 25.8076> 1433 20G<348.951 361.951>
VStem: 8.69434 357.371
LayerCount: 2
Fore
SplineSet
354.451171875 1453 m 262
 356.451171875 1453 l 262
 367.451171875 1453 369.06640625 1447 366.065429688 1434 c 262
 38.6943359375 16 l 262
 35.6923828125 3 31.3076171875 -3 20.3076171875 -3 c 262
 18.3076171875 -3 l 262
 7.3076171875 -3 5.6923828125 3 8.6943359375 16 c 262
 336.065429688 1434 l 262
 339.06640625 1447 343.451171875 1453 354.451171875 1453 c 262
EndSplineSet
EndChar

StartChar: m
Encoding: 109 109 50
Width: 1494
VWidth: 1879
Flags: HW
LayerCount: 2
Fore
SplineSet
769 634 m 1
 845 964 1052 1084 1215 1084 c 0
 1377 1084 1473 965 1428 769 c 2
 1253 14 l 2
 1250.25838675 2.17189711146 1244 -3 1237 -3 c 2
 1236 -3 l 2
 1225 -3 1220.91829685 5.01893781736 1223 14 c 2
 1398 769 l 2
 1440 953 1357 1059 1213 1059 c 0
 1060 1059 855 924 788 632 c 1
 769 634 l 1
256 1053 m 2
 257 1053 l 2
 264 1053 267.825842697 1047.57865169 264 1031 c 2
 195 732 l 1
 197 705 l 1
 37 14 l 2
 34.0412716839 1.22199208477 27 -3 21 -3 c 2
 20 -3 l 2
 13 -3 4.82858650217 0.270589667627 8 14 c 2
 245 1040 l 2
 247 1047 250 1053 256 1053 c 2
167 653 m 1
 232 935 445 1084 607 1084 c 0
 769 1084 865 965 820 769 c 2
 645 14 l 2
 642.038416715 1.22288354283 635 -3 628 -3 c 2
 627 -3 l 2
 620 -3 612.258386748 2.17189711146 615 14 c 2
 790 769 l 2
 830 944 750 1059 606 1059 c 0
 453 1059 243 905 180 632 c 1
 167 653 l 1
EndSplineSet
EndChar

StartChar: n
Encoding: 110 110 51
Width: 953
VWidth: 1879
Flags: HW
AnchorPoint: "bottom" 375 0 basechar 0
AnchorPoint: "top" 638 1050 basechar 0
LayerCount: 2
Fore
SplineSet
257 1053 m 262
 259 1053 l 262
 268 1053 270 1047 267 1034 c 262
 182 667 l 261
 180 640 l 261
 36 16 l 262
 33 3 28 -3 17 -3 c 262
 15 -3 l 262
 4 -3 3 3 6 16 c 262
 241 1034 l 262
 244 1047 248 1053 257 1053 c 262
159 634 m 261
 212 864 419 1084 642 1084 c 260
 853 1084 933.083330562 963.67120008 880 733 c 262
 715 16 l 262
 712 3 707 -3 696 -3 c 262
 694 -3 l 262
 683 -3 682 3 685 16 c 262
 850 733 l 262
 898.360240082 943.147225086 835 1059 640 1059 c 260
 422 1059 226 842 178 632 c 261
 159 634 l 261
EndSplineSet
EndChar

StartChar: o
Encoding: 111 111 52
Width: 1071
VWidth: 1879
Flags: HW
AnchorPoint: "top" 680 1050 basechar 0
AnchorPoint: "bottom" 437 0 basechar 0
LayerCount: 2
Fore
SplineSet
74 456 m 2
 106 595 l 2
 172 879 404 1084 661 1084 c 4
 918 1084 1067 879 1001 595 c 2
 969 456 l 2
 903 172 670 -34 413 -34 c 0
 156 -34 8 172 74 456 c 2
99 455 m 2
 38 192 175 -9 414 -9 c 0
 653 -9 882 192 943 455 c 2
 976 596 l 2
 1037 859 899 1059 660 1059 c 0
 421 1059 193 859 132 596 c 2
 99 455 l 2
EndSplineSet
EndChar

StartChar: p
Encoding: 112 112 53
Width: 1055
VWidth: 1879
Flags: HW
LayerCount: 2
Fore
SplineSet
167 643 m 5
 228 908 472 1084 682 1084 c 4
 880 1084 1081 947 1004 615 c 6
 963 436 l 6
 891 124 645 -34 446 -34 c 4
 211 -34 58 153 117 408 c 5
 127 427 l 5
 73 193 212 -4 446 -4 c 4
 627 -4 864 145 931 435 c 6
 973 616 l 6
 1045 926 862 1054 681 1054 c 4
 465 1054 226 858 172 624 c 5
 167 643 l 5
-81 -344 m 262
 237 1034 l 262
 240 1046 242 1053 253 1053 c 262
 254 1053 l 262
 265 1053 265 1046 262 1034 c 262
 181 683 l 261
 179 652 l 261
 -51 -344 l 262
 -54 -356 -59 -363 -70 -363 c 262
 -72 -363 l 262
 -83 -363 -84 -356 -81 -344 c 262
EndSplineSet
EndChar

StartChar: q
Encoding: 113 113 54
Width: 1055
VWidth: 1879
Flags: HW
LayerCount: 2
Fore
SplineSet
720 -363 m 262
 719 -363 l 262
 708 -363 705 -357 708 -345 c 262
 944 674 l 261
 1035 1067 l 262
 1038 1080 1044 1084 1053 1084 c 262
 1054 1084 l 262
 1063 1084 1068 1081 1065 1070 c 262
 738 -345 l 262
 735 -357 731 -363 720 -363 c 262
897 406 m 5
 840 161 607 -33 360 -33 c 4
 161 -33 -18 123 54 434 c 6
 96 614 l 6
 173 946 416 1084 615 1084 c 4
 845 1084 998 884 951 639 c 5
 931 620 l 5
 979 826 847 1054 618 1054 c 4
 437 1054 198 926 126 615 c 6
 84 434 l 6
 17 144 177 -3 358 -3 c 4
 613 -3 839 221 886 426 c 5
 897 406 l 5
EndSplineSet
EndChar

StartChar: r
Encoding: 114 114 55
Width: 694
VWidth: 1879
Flags: HW
AnchorPoint: "top" 467 1050 basechar 0
AnchorPoint: "bottom" 44 0 basechar 0
LayerCount: 2
Fore
SplineSet
193 713 m 5
 199 770 l 5
 229 900 374 1084 546 1084 c 4
 745 1084 736 863 578 670 c 4
 575 666 569 662 566 662 c 6
 565 662 l 6
 557 662 553.378355511 665.949236415 563 680 c 4
 726.205848773 918.334184913 678 1054 539 1054 c 4
 401 1054 238 908 193 713 c 5
252 1053 m 14
 253 1053 l 6
 260 1053 264.932985098 1047.78598191 262 1035 c 6
 198 756 l 5
 200 747 l 5
 32 18 l 6
 28.6166646147 3.31874109575 21 -3 14 -3 c 6
 13 -3 l 6
 6 -3 -1.39277521839 4.3219343306 2 19 c 6
 238 1040 l 6
 240 1047 245 1053 252 1053 c 14
EndSplineSet
EndChar

StartChar: s
Encoding: 115 115 56
Width: 912
VWidth: 1879
Flags: HW
AnchorPoint: "top" 580 1050 basechar 0
AnchorPoint: "bottom" 361 -25 basechar 0
LayerCount: 2
Fore
SplineSet
38 363 m 2
 39 363 l 2
 49 363 55 353 53 346 c 0
 45 311 41 284 38 254 c 0
 20 47 185 -6 351 -6 c 0
 518 -6 713 91 753 265 c 0
 847 672 79 400 175 817 c 0
 214 987 359 1084 568 1084 c 0
 740 1084 890 999 867 814 c 0
 865 791 860 769 854 742 c 0
 852 735 847 727 840 727 c 2
 839 727 l 2
 830 727 826 736 828 743 c 0
 834 768 837 787 840 810 c 0
 862 978 723 1059 567 1059 c 0
 366 1059 239 963 205 816 c 0
 116 431 885 696 785 262 c 0
 743 82 558 -35 345 -35 c 0
 183 -35 -12 22 6 248 c 0
 8 280 15 311 23 347 c 0
 25 354 29 363 38 363 c 2
EndSplineSet
EndChar

StartChar: t
Encoding: 116 116 57
Width: 604
VWidth: 1879
Flags: HW
AnchorPoint: "bottom" 237 0 basechar 0
LayerCount: 2
Fore
SplineSet
663 1025 m 262
 167 1025 l 262
 154 1025 148 1026 148 1037 c 262
 148 1038 l 262
 148 1049 154 1050 167 1050 c 262
 663 1050 l 262
 676 1050 682 1049 682 1038 c 262
 682 1037 l 262
 682 1026 676 1025 663 1025 c 262
461 12 m 262
 461 11 l 262
 461 3 451 0 438 -2 c 260
 148 -37 132 44 180 252 c 262
 442 1386 l 262
 445 1399 448 1406 459 1406 c 262
 460 1406 l 262
 471 1406 470 1399 467 1386 c 262
 205 252 l 262
 160 55 172 -11 443 19 c 260
 454 20 461 21 461 12 c 262
EndSplineSet
EndChar

StartChar: u
Encoding: 117 117 58
Width: 953
VWidth: 1879
Flags: HW
AnchorPoint: "ogonek" 721 0 basechar 0
AnchorPoint: "bottom" 395 0 basechar 0
AnchorPoint: "top" 608 1050 basechar 0
LayerCount: 2
Fore
SplineSet
698 -4 m 262
 696 -4 l 262
 687 -4 685 2 688 15 c 262
 773 382 l 261
 775 409 l 261
 919 1033 l 262
 922 1046 927 1052 938 1052 c 262
 940 1052 l 262
 951 1052 952 1046 949 1033 c 262
 714 15 l 262
 711 2 707 -4 698 -4 c 262
796 415 m 261
 743 185 536 -35 313 -35 c 260
 102 -35 22 85 75 316 c 262
 240 1033 l 262
 243 1046 248 1052 259 1052 c 262
 261 1052 l 262
 272 1052 273 1046 270 1033 c 262
 105 316 l 262
 57 106 120 -10 315 -10 c 260
 533 -10 729 207 777 417 c 261
 796 415 l 261
EndSplineSet
EndChar

StartChar: v
Encoding: 118 118 59
Width: 855
VWidth: 1879
Flags: HW
LayerCount: 2
Fore
SplineSet
310 39 m 261
 915 1034 l 262
 922 1047 928 1053 938 1053 c 262
 940 1053 l 262
 951 1053 959 1047 951 1034 c 262
 330 16 l 262
 321 1 313 -3 303 -3 c 262
 302 -3 l 262
 292 -3 288 2 286 16 c 262
 142 1034 l 262
 141 1047 144 1053 152 1053 c 262
 153 1053 l 262
 162 1053 165 1047 166 1034 c 262
 310 39 l 261
EndSplineSet
EndChar

StartChar: w
Encoding: 119 119 60
Width: 1358
VWidth: 1879
Flags: HW
LayerCount: 2
Fore
SplineSet
870 48 m 261
 1410 1034 l 262
 1417 1047 1421 1053 1428 1053 c 262
 1429 1053 l 262
 1438 1053 1445 1047 1438 1034 c 262
 882 16 l 262
 875 3 871 -3 860 -3 c 262
 859 -3 l 262
 849 -3 849 2 848 16 c 262
 804 1009 l 261
 277 16 l 262
 270 2 264 -3 254 -3 c 262
 253 -3 l 262
 242 -3 240.126151518 3.93005758195 239 18 c 262
 158 1030 l 262
 156 1045 163 1053 173 1053 c 262
 175 1053 l 262
 185 1053 187 1047 188 1034 c 262
 265 48 l 261
 792 1034 l 262
 799 1047 805 1053 815 1053 c 262
 817 1053 l 262
 827 1053 830 1047 831 1034 c 262
 870 48 l 261
EndSplineSet
EndChar

StartChar: x
Encoding: 120 120 61
Width: 890
VWidth: 1879
Flags: HW
LayerCount: 2
Fore
SplineSet
-62 -3 m 262
 -63 -3 l 262
 -75 -3 -74 8 -61 22 c 262
 440 550 l 261
 185 1031 l 262
 178 1044 186 1053 196 1053 c 262
 197 1053 l 262
 207 1053 213 1047 220 1034 c 262
 458 564 l 261
 909 1034 l 262
 922 1047 931 1053 940 1053 c 262
 941 1053 l 262
 951 1053 954 1043 940 1029 c 262
 471 547 l 261
 721 23 l 262
 729 8 725 -3 713 -3 c 262
 711 -3 l 262
 700 -3 699 4 693 16 c 262
 452 529 l 261
 -34 16 l 262
 -45 3 -52 -3 -62 -3 c 262
EndSplineSet
EndChar

StartChar: y
Encoding: 121 121 62
Width: 878
VWidth: 1879
Flags: HW
AnchorPoint: "top" 577 1050 basechar 0
LayerCount: 2
Fore
SplineSet
328 30 m 1
 923 1040 l 2
 927 1047 932 1053 939 1053 c 2
 940 1053 l 2
 950 1053 957.542179888 1042.93454157 950 1030 c 2
 315 -59 l 2
 205 -248 90 -371 -9 -371 c 0
 -138 -371 -67.9139315678 -202.483589407 -28 -115 c 0
 -22.9502872887 -103.93201005 -18 -98 -12 -98 c 2
 -11 -98 l 2
 0 -98 1.89826489769 -106.521282006 -2 -117 c 0
 -34.0062211471 -203.034216309 -93 -340 -11 -340 c 0
 93 -340 202 -197 303 -16 c 1
 159 1034 l 2
 158 1041 161 1053 172 1053 c 2
 173 1053 l 2
 182 1053 186.202752779 1046.88883007 188 1034 c 2
 328 30 l 1
EndSplineSet
EndChar

StartChar: z
Encoding: 122 122 63
Width: 857
VWidth: 1879
Flags: HW
AnchorPoint: "top" 573 1050 basechar 0
LayerCount: 2
Fore
SplineSet
-47 24 m 262
 876 1020 l 261
 244 1020 l 262
 229 1020 225 1021 225 1034 c 262
 225 1035 l 262
 225 1048 229 1050 244 1050 c 262
 921 1050 l 262
 936 1050 941.012421446 1040.98851203 929 1028 c 262
 6 30 l 261
 707 30 l 262
 720 30 726 27 726 16 c 262
 726 15 l 262
 726 4 720 0 707 0 c 262
 -45 0 l 262
 -59 0 -61 10 -47 24 c 262
EndSplineSet
EndChar

StartChar: comma
Encoding: 44 44 65
Width: 540
VWidth: 1920
Flags: HMW
LayerCount: 2
Fore
SplineSet
71 -211 m 262
 70 -211 l 262
 62 -211 62 -203 66 -193 c 270
 147 0 l 261
 145 0 l 262
 132 0 129 5 132 19 c 262
 173 193 l 262
 176 205 184 213 197 213 c 262
 201 213 l 262
 214 213 221 205 218 193 c 262
 182 38 l 262
 179 27 170 8 165 -3 c 262
 90 -191 l 262
 84 -206 78 -211 71 -211 c 262
EndSplineSet
EndChar

StartChar: exclam
Encoding: 33 33 67
Width: 540
VWidth: 1920
Flags: HMW
LayerCount: 2
Fore
SplineSet
151 -3 m 262
 147 -3 l 262
 134 -3 128 6 131 18 c 262
 171 192 l 262
 174 204 184 213 197 213 c 262
 201 213 l 262
 214 213 220 204 217 192 c 262
 177 18 l 262
 174 6 164 -3 151 -3 c 262
356 957 m 262
 466 1434 l 262
 469 1447 475 1453 484 1453 c 262
 486 1453 l 262
 495 1453 499 1447 496 1434 c 262
 386 957 l 262
 383 946 361 855 358 844 c 262
 264 444 l 262
 261 433 258 428 250 428 c 262
 248 428 l 262
 240 428 239 433 242 444 c 262
 332 844 l 262
 335 855 353 946 356 957 c 262
EndSplineSet
EndChar

StartChar: quotesingle
Encoding: 39 39 70
Width: 370
VWidth: 1920
Flags: HMW
LayerCount: 2
Fore
SplineSet
281 930 m 258
 280 930 l 258
 272 930 269 934 271 944 c 258
 316 1146 l 258
 325 1187 327 1208 334 1239 c 258
 372 1404 l 258
 375 1416 381 1423 393 1423 c 262
 395 1423 l 262
 407 1423 409 1416 406 1404 c 258
 368 1239 l 258
 361 1208 353 1187 344 1146 c 258
 295 944 l 258
 293 934 289 930 281 930 c 258
EndSplineSet
EndChar

StartChar: question
Encoding: 63 63 71
Width: 1080
VWidth: 1920
Flags: HMW
LayerCount: 2
Fore
SplineSet
461 -3 m 258
 457 -3 l 258
 444 -3 438 6 441 18 c 258
 481 192 l 258
 484 204 494 213 507 213 c 258
 511 213 l 258
 524 213 530 204 527 192 c 258
 487 18 l 258
 484 6 474 -3 461 -3 c 258
543 397 m 262
 541 397 l 262
 532 397 527 403 529 412 c 260
 623 732 954 779 1020 1063 c 262
 1028 1098 l 262
 1081 1329 1002 1455 805 1455 c 260
 585 1455 434 1296 378 1052 c 262
 358 968 l 262
 355 955 351 949 340 949 c 262
 339 949 l 262
 328 949 325 955 328 968 c 262
 348 1052 l 262
 409 1317 565 1485 812 1485 c 260
 1029 1485 1118 1354 1060 1103 c 262
 1054 1078 l 262
 979 755 652 715 562 411 c 260
 559 403 552 397 543 397 c 262
EndSplineSet
EndChar

StartChar: parenleft
Encoding: 40 40 72
Width: 535
VWidth: 2048
Flags: HMW
LayerCount: 2
Fore
SplineSet
203 838 m 262
 297 1243 480 1561 743 1618 c 260
 753 1620 757 1618 755 1609 c 262
 755 1608 l 262
 753 1599 749 1598 739 1595 c 260
 503 1523 331 1239 238 838 c 262
 140 412 l 262
 47 11 89 -273 291 -345 c 260
 299 -348 304 -349 302 -358 c 262
 302 -359 l 262
 300 -368 294 -370 284 -368 c 260
 47 -311 11 7 105 412 c 262
 203 838 l 262
EndSplineSet
EndChar

StartChar: parenright
Encoding: 41 41 73
Width: 535
VWidth: 2048
Flags: HMW
LayerCount: 2
Fore
SplineSet
380 412 m 262
 286 7 104 -311 -159 -368 c 260
 -169 -370 -174 -368 -172 -359 c 262
 -172 -358 l 262
 -170 -349 -166 -348 -156 -345 c 260
 80 -273 252 11 345 412 c 262
 443 838 l 262
 536 1239 494 1523 292 1595 c 260
 284 1598 279 1599 281 1608 c 262
 281 1609 l 262
 283 1618 290 1620 300 1618 c 260
 537 1561 572 1243 478 838 c 262
 380 412 l 262
EndSplineSet
EndChar

StartChar: asterisk
Encoding: 42 42 74
Width: 914
VWidth: 2048
Flags: HMW
LayerCount: 2
Fore
SplineSet
573 1015 m 257
 572 1025 l 257
 925 1143 l 258
 936 1146 943 1150 951 1152 c 258
 995 1164 l 258
 1006 1167 1014 1165 1015 1155 c 258
 1015 1153 l 258
 1016 1143 1009 1135 998 1132 c 258
 954 1118 l 258
 944 1115 938 1114 927 1111 c 258
 573 1015 l 257
568 1017 m 257
 577 1023 l 257
 727 750 l 258
 731 741 735 736 739 730 c 258
 755 694 l 258
 759 686 757 676 747 670 c 258
 745 669 l 258
 735 663 727 666 723 674 c 258
 704 708 l 258
 701 715 700 721 696 730 c 258
 568 1017 l 257
569 1023 m 257
 576 1017 l 257
 316 730 l 258
 308 721 302 714 296 708 c 258
 263 674 l 258
 255 666 245 663 237 669 c 258
 237 670 l 258
 229 676 231 686 239 694 c 258
 273 730 l 258
 280 737 285 741 293 750 c 258
 569 1023 l 257
576 1025 m 257
 569 1015 l 257
 259 1111 l 258
 250 1114 243 1115 236 1118 c 258
 198 1132 l 258
 189 1135 184 1144 191 1153 c 258
 193 1155 l 258
 200 1164 208 1167 217 1164 c 258
 255 1152 l 258
 263 1149 268 1147 277 1143 c 258
 576 1025 l 257
577 1020 m 257
 567 1020 l 257
 635 1366 l 258
 638 1377 638 1384 640 1392 c 258
 651 1435 l 258
 653 1445 660 1453 671 1453 c 258
 673 1453 l 258
 684 1453 687 1445 685 1435 c 258
 676 1392 l 258
 674 1383 672 1377 669 1366 c 258
 577 1020 l 257
EndSplineSet
EndChar

StartChar: at
Encoding: 64 64 75
Width: 1990
VWidth: 1920
Flags: HMW
LayerCount: 2
Fore
SplineSet
1269 492 m 257
 1202 202 1047 40 850 40 c 256
 683 40 562 157 640 497 c 258
 647 528 l 258
 721 848 891 985 1058 985 c 256
 1265 985 1345 823 1278 533 c 257
 1258 533 l 257
 1316 783 1248 955 1051 955 c 256
 904 955 748 833 676 523 c 258
 669 492 l 258
 597 182 710 70 857 70 c 256
 1044 70 1191 242 1249 492 c 257
 1269 492 l 257
1148 -258 m 256
 1065 -317 941 -360 782 -360 c 256
 255 -360 63 13 174 493 c 258
 195 583 l 258
 313 1093 739 1435 1236 1435 c 256
 1803 1435 1926 1024 1836 633 c 258
 1815 543 l 258
 1732 183 1566 40 1379 40 c 256
 1172 40 1178 185 1229 405 c 258
 1272 595 l 257
 1358 968 l 258
 1360 978 1368 985 1377 985 c 258
 1378 985 l 258
 1387 985 1392 981 1389 970 c 258
 1259 405 l 258
 1214 211 1199 70 1386 70 c 256
 1603 70 1730 303 1785 543 c 258
 1806 633 l 258
 1891 1003 1776 1405 1229 1405 c 256
 742 1405 331 1043 227 593 c 258
 202 483 l 258
 100 43 262 -330 789 -330 c 256
 950 -330 1058 -283 1142 -228 c 256
 1155 -220 1164 -222 1166 -231 c 258
 1166 -233 l 258
 1168 -242 1161 -250 1148 -258 c 256
EndSplineSet
EndChar

StartChar: dollar
Encoding: 36 36 76
Width: 1110
VWidth: 1920
Flags: HMW
LayerCount: 2
Fore
SplineSet
145 511 m 258
 147 511 l 258
 154 511 162 506 159 493 c 258
 144 427 l 258
 91 198 158 -5 439 -5 c 256
 708 -5 851 165 893 345 c 256
 927 492 864 615 576 684 c 256
 321 746 254 885 295 1063 c 256
 348 1293 514 1435 751 1435 c 256
 1025 1435 1090 1256 1040 1041 c 258
 1026 977 l 258
 1023 965 1014 960 1005 960 c 258
 1004 960 l 262
 995 960 987 964 990 976 c 258
 1003 1031 l 258
 1050 1236 989 1405 744 1405 c 256
 537 1405 384 1283 333 1063 c 256
 296 902 349 774 593 715 c 256
 876 647 969 515 930 348 c 256
 885 152 742 -35 432 -35 c 256
 124 -35 54 183 108 418 c 258
 125 492 l 258
 128 505 138 511 145 511 c 258
796 1590 m 258
 798 1590 l 258
 806 1590 811 1586 809 1576 c 258
 404 -176 l 258
 402 -186 395 -190 387 -190 c 258
 385 -190 l 258
 377 -190 372 -186 374 -176 c 258
 779 1576 l 258
 781 1586 788 1590 796 1590 c 258
EndSplineSet
EndChar

StartChar: numbersign
Encoding: 35 35 77
Width: 1300
VWidth: 1920
Flags: HMW
LayerCount: 2
Fore
SplineSet
67 460 m 262
 1119 460 l 262
 1131 460 1136 456 1136 446 c 262
 1136 444 l 262
 1136 434 1131 430 1119 430 c 262
 67 430 l 262
 55 430 50 434 50 444 c 262
 50 446 l 262
 50 456 55 460 67 460 c 262
283 1050 m 258
 1335 1050 l 258
 1347 1050 1352 1046 1352 1036 c 258
 1352 1034 l 258
 1352 1024 1347 1020 1335 1020 c 258
 283 1020 l 258
 271 1020 266 1024 266 1034 c 258
 266 1036 l 258
 266 1046 271 1050 283 1050 c 258
1197 1403 m 258
 1198 1403 l 258
 1212 1403 1212 1396 1205 1382 c 258
 567 16 l 258
 561 3 558 -3 544 -3 c 258
 543 -3 l 258
 529 -3 532 5 538 18 c 258
 1177 1384 l 258
 1183 1396 1183 1403 1197 1403 c 258
817 1403 m 258
 818 1403 l 258
 829 1403 832 1396 825 1382 c 258
 187 16 l 258
 181 3 175 -3 164 -3 c 258
 163 -3 l 258
 153 -3 152 5 158 18 c 258
 797 1384 l 258
 803 1396 806 1403 817 1403 c 258
EndSplineSet
EndChar

StartChar: slash
Encoding: 47 47 78
Width: 840
VWidth: 2048
Flags: HMW
LayerCount: 2
Fore
SplineSet
940 1379 m 262
 -37 -84 l 262
 -46 -98 -52 -103 -61 -103 c 262
 -62 -103 l 262
 -74 -103 -75 -95 -64 -79 c 262
 913 1384 l 262
 922 1398 927 1403 936 1403 c 262
 937 1403 l 262
 946 1403 951 1395 940 1379 c 262
EndSplineSet
EndChar

StartChar: percent
Encoding: 37 37 79
Width: 1755
VWidth: 2048
Flags: HMW
LayerCount: 2
Fore
SplineSet
230 1083 m 258
 238 1118 l 258
 282 1308 469 1435 646 1435 c 256
 823 1435 962 1308 918 1118 c 258
 910 1083 l 258
 866 893 669 765 492 765 c 256
 315 765 186 893 230 1083 c 258
265 1083 m 258
 226 913 344 805 501 805 c 256
 668 805 836 913 875 1083 c 258
 883 1118 l 258
 922 1288 804 1395 637 1395 c 256
 480 1395 312 1288 273 1118 c 258
 265 1083 l 258
920 283 m 258
 928 318 l 258
 972 508 1160 635 1337 635 c 256
 1514 635 1652 508 1608 318 c 258
 1600 283 l 258
 1556 93 1359 -35 1182 -35 c 256
 1005 -35 876 93 920 283 c 258
955 283 m 258
 916 113 1034 5 1191 5 c 256
 1348 5 1526 113 1565 283 c 258
 1573 318 l 258
 1612 488 1484 595 1327 595 c 256
 1170 595 1002 488 963 318 c 258
 955 283 l 258
1573 1381 m 258
 304 16 l 258
 292 3 285 -3 274 -3 c 258
 272 -3 l 258
 260 -3 253 6 265 19 c 258
 1535 1384 l 258
 1546 1398 1553 1403 1564 1403 c 258
 1565 1403 l 258
 1578 1403 1584 1395 1573 1381 c 258
EndSplineSet
EndChar

StartChar: hyphen
Encoding: 45 45 80
Width: 570
VWidth: 1920
Flags: HMW
LayerCount: 2
Fore
SplineSet
57 610 m 262
 57 615 l 262
 57 625 63 630 75 630 c 262
 535 630 l 262
 547 630 553 625 553 615 c 262
 553 610 l 262
 553 600 547 595 535 595 c 262
 75 595 l 262
 63 595 57 600 57 610 c 262
EndSplineSet
EndChar

StartChar: underscore
Encoding: 95 95 81
Width: 900
VWidth: 1920
Flags: HMW
LayerCount: 2
Fore
SplineSet
-127 -20 m 262
 -127 -15 l 262
 -127 -5 -121 0 -109 0 c 262
 761 0 l 262
 773 0 779 -5 779 -15 c 262
 779 -20 l 262
 779 -30 773 -35 761 -35 c 262
 -109 -35 l 262
 -121 -35 -127 -30 -127 -20 c 262
EndSplineSet
EndChar

StartChar: plus
Encoding: 43 43 82
Width: 1040
VWidth: 1920
Flags: HMW
LayerCount: 2
Fore
SplineSet
82 690 m 262
 82 695 l 262
 82 705 88 710 100 710 c 262
 1020 710 l 262
 1032 710 1038 705 1038 695 c 262
 1038 690 l 262
 1038 680 1032 675 1020 675 c 262
 100 675 l 262
 88 675 82 680 82 690 c 262
674 1193 m 258
 676 1193 l 258
 686 1193 689 1187 686 1175 c 258
 458 185 l 258
 455 173 450 167 440 167 c 258
 438 167 l 258
 428 167 425 173 428 185 c 258
 656 1175 l 258
 659 1187 664 1193 674 1193 c 258
EndSplineSet
EndChar

StartChar: equal
Encoding: 61 61 83
Width: 1180
VWidth: 1920
Flags: HMW
LayerCount: 2
Fore
SplineSet
107 347 m 258
 107 348 l 258
 107 358 113 360 125 360 c 258
 975 360 l 258
 987 360 993 358 993 348 c 258
 993 347 l 258
 993 337 987 335 975 335 c 258
 125 335 l 258
 113 335 107 337 107 347 c 258
176 647 m 262
 176 648 l 262
 176 658 182 660 194 660 c 262
 1044 660 l 262
 1056 660 1062 658 1062 648 c 262
 1062 647 l 262
 1062 637 1056 635 1044 635 c 262
 194 635 l 262
 182 635 176 637 176 647 c 262
EndSplineSet
EndChar

StartChar: less
Encoding: 60 60 84
Width: 1010
VWidth: 1920
Flags: HMW
LayerCount: 2
Fore
SplineSet
761 160 m 262
 96 571 l 262
 85 577 81 585 83 595 c 262
 86 605 l 262
 88 615 96 623 109 629 c 262
 964 1040 l 262
 978 1047 986 1043 983 1032 c 262
 983 1031 l 262
 980 1020 972 1017 957 1010 c 262
 108 600 l 261
 768 190 l 262
 779 183 787 180 784 169 c 262
 784 168 l 262
 781 157 771 153 761 160 c 262
EndSplineSet
EndChar

StartChar: greater
Encoding: 62 62 85
Width: 1010
VWidth: 1920
Flags: HMW
LayerCount: 2
Fore
SplineSet
286 1040 m 262
 951 629 l 262
 962 623 966 615 964 605 c 262
 961 595 l 262
 959 585 951 577 938 571 c 262
 83 160 l 262
 69 153 61 157 64 168 c 262
 64 169 l 262
 67 180 75 183 90 190 c 262
 940 600 l 261
 279 1010 l 262
 268 1017 260 1020 263 1031 c 262
 263 1032 l 262
 266 1043 276 1047 286 1040 c 262
EndSplineSet
EndChar

StartChar: backslash
Encoding: 92 92 86
Width: 840
VWidth: 2048
Flags: HMW
LayerCount: 2
Fore
SplineSet
296 1379 m 258
 293 1395 302 1403 311 1403 c 258
 312 1403 l 258
 321 1403 324 1398 327 1384 c 258
 628 -79 l 258
 631 -95 626 -103 614 -103 c 258
 613 -103 l 258
 604 -103 602 -98 599 -84 c 258
 296 1379 l 258
EndSplineSet
EndChar

StartChar: bracketleft
Encoding: 91 91 87
Width: 550
VWidth: 1920
Flags: HMW
LayerCount: 2
Fore
SplineSet
422 1570 m 257
 -16 -330 l 257
 287 -330 l 258
 300 -330 306 -333 303 -344 c 262
 302 -345 l 262
 299 -356 293 -360 280 -360 c 258
 -29 -360 l 258
 -45 -360 -52 -352 -48 -336 c 258
 394 1576 l 258
 398 1592 407 1600 423 1600 c 258
 732 1600 l 258
 745 1600 751 1597 748 1586 c 258
 748 1585 l 258
 745 1574 738 1570 725 1570 c 258
 422 1570 l 257
EndSplineSet
EndChar

StartChar: braceleft
Encoding: 123 123 88
Width: 575
VWidth: 2048
Flags: HMW
LayerCount: 2
Fore
SplineSet
390 1278 m 258
 442 1505 518 1598 708 1600 c 256
 721 1600 726 1595 724 1586 c 258
 723 1582 l 258
 721 1572 713 1570 702 1569 c 256
 527 1564 472 1482 425 1278 c 258
 351 956 l 258
 308 771 226 668 59 620 c 257
 204 572 239 469 196 284 c 258
 121 -38 l 258
 74 -241 91 -323 262 -329 c 256
 274 -330 281 -332 279 -342 c 258
 278 -346 l 258
 276 -355 269 -360 254 -360 c 256
 67 -356 34 -265 86 -38 c 258
 161 284 l 258
 210 497 132 569 44 601 c 256
 34 605 30 609 32 619 c 258
 32 620 l 258
 34 630 40 635 50 638 c 256
 157 671 264 732 316 956 c 258
 390 1278 l 258
EndSplineSet
EndChar

StartChar: bracketright
Encoding: 93 93 89
Width: 550
VWidth: 1920
Flags: HMW
LayerCount: 2
Fore
SplineSet
174 -330 m 257
 612 1570 l 257
 309 1570 l 258
 296 1570 291 1573 294 1584 c 258
 294 1585 l 258
 297 1596 303 1600 316 1600 c 258
 625 1600 l 258
 641 1600 648 1592 644 1576 c 258
 202 -336 l 258
 198 -352 189 -360 173 -360 c 258
 -136 -360 l 258
 -149 -360 -155 -356 -152 -345 c 262
 -151 -344 l 262
 -148 -333 -142 -330 -129 -330 c 258
 174 -330 l 257
EndSplineSet
EndChar

StartChar: braceright
Encoding: 125 125 90
Width: 575
VWidth: 2048
Flags: HMW
LayerCount: 2
Fore
SplineSet
231 -38 m 258
 179 -265 103 -358 -87 -360 c 256
 -100 -360 -105 -355 -103 -346 c 258
 -102 -342 l 258
 -100 -332 -91 -330 -80 -329 c 256
 95 -324 149 -242 196 -38 c 258
 271 284 l 258
 314 469 395 572 562 620 c 257
 417 668 383 771 426 956 c 258
 500 1278 l 258
 547 1481 530 1563 359 1569 c 256
 347 1570 340 1572 342 1582 c 258
 343 1586 l 258
 345 1595 352 1600 367 1600 c 256
 554 1596 587 1505 535 1278 c 258
 461 956 l 258
 412 743 490 671 578 639 c 256
 588 635 591 631 589 621 c 262
 589 620 l 262
 587 610 581 605 571 602 c 256
 464 569 358 508 306 284 c 258
 231 -38 l 258
EndSplineSet
EndChar

StartChar: bar
Encoding: 124 124 91
Width: 415
VWidth: 1920
Flags: HMW
LayerCount: 2
Fore
SplineSet
457 1603 m 262
 458 1603 l 262
 469 1603 472 1597 469 1584 c 258
 24 -344 l 258
 21 -357 16 -363 5 -363 c 258
 3 -363 l 258
 -8 -363 -9 -357 -6 -344 c 258
 439 1584 l 258
 442 1597 446 1603 457 1603 c 262
EndSplineSet
EndChar

StartChar: asciitilde
Encoding: 126 126 92
Width: 1330
VWidth: 2048
Flags: HMW
LayerCount: 2
Fore
SplineSet
482 779 m 256
 330 779 243 640 196 453 c 256
 193 441 186 435 175 435 c 258
 174 435 l 258
 163 435 163 441 166 453 c 256
 218 655 318 809 489 809 c 256
 698 809 697 432 889 432 c 256
 1041 432 1128 570 1175 757 c 260
 1178 770 1182 776 1193 776 c 262
 1194 776 l 262
 1205 776 1207 770 1204 757 c 260
 1152 555 1052 402 882 402 c 256
 673 402 674 779 482 779 c 256
EndSplineSet
EndChar

StartChar: asciicircum
Encoding: 94 94 93
Width: 820
VWidth: 1920
Flags: HMW
LayerCount: 2
Fore
SplineSet
604 1361 m 257
 208 746 l 258
 201 735 190 727 179 727 c 258
 176 727 l 258
 164 727 162 737 171 750 c 258
 583 1384 l 258
 592 1398 598 1402 609 1402 c 258
 619 1402 l 258
 630 1402 634 1398 637 1384 c 258
 755 750 l 258
 758 737 757 727 740 727 c 258
 738 727 l 262
 724 727 717 735 716 746 c 258
 604 1361 l 257
EndSplineSet
EndChar

StartChar: figuredash
Encoding: 8210 8210 108
Width: 1150
VWidth: 2048
Flags: HMW
LayerCount: 2
Fore
SplineSet
57 610 m 262
 57 615 l 262
 57 625 63 630 75 630 c 262
 1115 630 l 262
 1127 630 1133 625 1133 615 c 262
 1133 610 l 262
 1133 600 1127 595 1115 595 c 262
 75 595 l 262
 63 595 57 600 57 610 c 262
EndSplineSet
EndChar

StartChar: endash
Encoding: 8211 8211 109
Width: 1100
VWidth: 2048
Flags: HMW
LayerCount: 2
Fore
SplineSet
57 610 m 262
 57 615 l 262
 57 625 63 630 75 630 c 262
 1065 630 l 262
 1077 630 1083 625 1083 615 c 262
 1083 610 l 262
 1083 600 1077 595 1065 595 c 262
 75 595 l 262
 63 595 57 600 57 610 c 262
EndSplineSet
EndChar

StartChar: emdash
Encoding: 8212 8212 110
Width: 2200
VWidth: 2048
Flags: HMW
LayerCount: 2
Fore
SplineSet
57 610 m 262
 57 615 l 262
 57 625 63 630 75 630 c 262
 2165 630 l 262
 2177 630 2183 625 2183 615 c 262
 2183 610 l 262
 2183 600 2177 595 2165 595 c 262
 75 595 l 262
 63 595 57 600 57 610 c 262
EndSplineSet
EndChar

StartChar: uni2015
Encoding: 8213 8213 111
Width: 2360
VWidth: 2048
Flags: HMW
LayerCount: 2
Fore
SplineSet
57 610 m 262
 57 615 l 262
 57 625 63 630 75 630 c 262
 2325 630 l 262
 2337 630 2343 625 2343 615 c 262
 2343 610 l 262
 2343 600 2337 595 2325 595 c 262
 75 595 l 262
 63 595 57 600 57 610 c 262
EndSplineSet
EndChar

StartChar: quoteleft
Encoding: 8216 8216 114
Width: 540
VWidth: 1920
Flags: HMW
LayerCount: 2
Fore
SplineSet
498 1471 m 262
 499 1471 l 262
 507 1471 506 1463 502 1453 c 270
 422 1260 l 261
 424 1260 l 262
 437 1260 440 1255 437 1241 c 262
 396 1067 l 262
 393 1055 385 1047 372 1047 c 262
 368 1047 l 262
 355 1047 348 1055 351 1067 c 262
 387 1222 l 262
 390 1233 399 1252 404 1263 c 262
 479 1451 l 262
 485 1466 491 1471 498 1471 c 262
EndSplineSet
EndChar

StartChar: quotereversed
Encoding: 8219 8219 117
Width: 540
VWidth: 1920
Flags: HMW
LayerCount: 2
Fore
SplineSet
389 999 m 262
 382 999 379 1004 379 1019 c 262
 391 1207 l 262
 392 1218 390 1237 393 1248 c 262
 429 1403 l 262
 432 1415 442 1423 455 1423 c 262
 459 1423 l 262
 472 1423 477 1415 474 1403 c 262
 434 1229 l 262
 431 1215 425 1210 412 1210 c 262
 410 1210 l 261
 402 1017 l 278
 402 1007 398 999 390 999 c 262
 389 999 l 262
EndSplineSet
EndChar

StartChar: bullet
Encoding: 8226 8226 120
Width: 690
VWidth: 2048
Flags: HMW
LayerCount: 2
Fore
SplineSet
201 718 m 262
 201 773 l 262
 201 893 294 950 391 950 c 260
 488 950 591 893 591 773 c 262
 591 718 l 262
 591 598 488 540 391 540 c 260
 294 540 201 598 201 718 c 262
EndSplineSet
EndChar

StartChar: dagger
Encoding: 8224 8224 124
Width: 1130
VWidth: 1920
Flags: HMW
LayerCount: 2
Fore
SplineSet
185 1030 m 262
 185 1035 l 262
 185 1046 191 1050 204 1050 c 262
 1162 1050 l 262
 1175 1050 1181 1046 1181 1035 c 262
 1181 1030 l 262
 1181 1019 1175 1015 1162 1015 c 262
 204 1015 l 262
 191 1015 185 1019 185 1030 c 262
768 1403 m 258
 770 1403 l 258
 781 1403 783 1397 780 1384 c 258
 464 16 l 258
 461 3 456 -3 445 -3 c 258
 443 -3 l 258
 432 -3 431 3 434 16 c 258
 750 1384 l 258
 753 1397 757 1403 768 1403 c 258
EndSplineSet
EndChar

StartChar: daggerdbl
Encoding: 8225 8225 125
Width: 1130
VWidth: 1920
Flags: HMW
LayerCount: 2
Fore
SplineSet
-49 15 m 262
 -49 20 l 262
 -49 31 -43 35 -30 35 c 262
 928 35 l 262
 941 35 947 31 947 20 c 262
 947 15 l 262
 947 4 941 0 928 0 c 262
 -30 0 l 262
 -43 0 -49 4 -49 15 c 262
185 1030 m 258
 185 1035 l 258
 185 1046 191 1050 204 1050 c 258
 1162 1050 l 258
 1175 1050 1181 1046 1181 1035 c 258
 1181 1030 l 258
 1181 1019 1175 1015 1162 1015 c 258
 204 1015 l 258
 191 1015 185 1019 185 1030 c 258
768 1403 m 258
 770 1403 l 258
 781 1403 783 1397 780 1384 c 258
 381 -344 l 258
 378 -357 373 -363 362 -363 c 258
 360 -363 l 258
 349 -363 348 -357 351 -344 c 258
 750 1384 l 258
 753 1397 757 1403 768 1403 c 258
EndSplineSet
EndChar

StartChar: perthousand
Encoding: 8240 8240 126
Width: 2555
VWidth: 2048
Flags: HMW
LayerCount: 2
Fore
SplineSet
1720 283 m 258
 1728 318 l 258
 1772 508 1960 635 2137 635 c 256
 2314 635 2452 508 2408 318 c 258
 2400 283 l 258
 2356 93 2159 -35 1982 -35 c 256
 1805 -35 1676 93 1720 283 c 258
1755 283 m 258
 1716 113 1834 5 1991 5 c 256
 2148 5 2326 113 2365 283 c 258
 2373 318 l 258
 2412 488 2284 595 2127 595 c 256
 1970 595 1802 488 1763 318 c 258
 1755 283 l 258
230 1083 m 258
 238 1118 l 258
 282 1308 469 1435 646 1435 c 256
 823 1435 962 1308 918 1118 c 258
 910 1083 l 258
 866 893 669 765 492 765 c 256
 315 765 186 893 230 1083 c 258
265 1083 m 258
 226 913 344 805 501 805 c 256
 668 805 836 913 875 1083 c 258
 883 1118 l 258
 922 1288 804 1395 637 1395 c 256
 480 1395 312 1288 273 1118 c 258
 265 1083 l 258
920 283 m 258
 928 318 l 258
 972 508 1160 635 1337 635 c 256
 1514 635 1652 508 1608 318 c 258
 1600 283 l 258
 1556 93 1359 -35 1182 -35 c 256
 1005 -35 876 93 920 283 c 258
955 283 m 258
 916 113 1034 5 1191 5 c 256
 1348 5 1526 113 1565 283 c 258
 1573 318 l 258
 1612 488 1484 595 1327 595 c 256
 1170 595 1002 488 963 318 c 258
 955 283 l 258
1573 1381 m 258
 304 16 l 258
 292 3 285 -3 274 -3 c 258
 272 -3 l 258
 260 -3 253 6 265 19 c 258
 1535 1384 l 258
 1546 1398 1553 1403 1564 1403 c 258
 1565 1403 l 258
 1578 1403 1584 1395 1573 1381 c 258
EndSplineSet
EndChar

StartChar: uni2031
Encoding: 8241 8241 127
Width: 3335
VWidth: 2048
Flags: HMW
LayerCount: 2
Fore
SplineSet
2500 283 m 258
 2508 318 l 258
 2552 508 2740 635 2917 635 c 256
 3094 635 3232 508 3188 318 c 258
 3180 283 l 258
 3136 93 2939 -35 2762 -35 c 256
 2585 -35 2456 93 2500 283 c 258
2535 283 m 258
 2496 113 2614 5 2771 5 c 256
 2928 5 3106 113 3145 283 c 258
 3153 318 l 258
 3192 488 3064 595 2907 595 c 256
 2750 595 2582 488 2543 318 c 258
 2535 283 l 258
1720 283 m 258
 1728 318 l 258
 1772 508 1960 635 2137 635 c 256
 2314 635 2452 508 2408 318 c 258
 2400 283 l 258
 2356 93 2159 -35 1982 -35 c 256
 1805 -35 1676 93 1720 283 c 258
1755 283 m 258
 1716 113 1834 5 1991 5 c 256
 2148 5 2326 113 2365 283 c 258
 2373 318 l 258
 2412 488 2284 595 2127 595 c 256
 1970 595 1802 488 1763 318 c 258
 1755 283 l 258
230 1083 m 258
 238 1118 l 258
 282 1308 469 1435 646 1435 c 256
 823 1435 962 1308 918 1118 c 258
 910 1083 l 258
 866 893 669 765 492 765 c 256
 315 765 186 893 230 1083 c 258
265 1083 m 258
 226 913 344 805 501 805 c 256
 668 805 836 913 875 1083 c 258
 883 1118 l 258
 922 1288 804 1395 637 1395 c 256
 480 1395 312 1288 273 1118 c 258
 265 1083 l 258
920 283 m 258
 928 318 l 258
 972 508 1160 635 1337 635 c 256
 1514 635 1652 508 1608 318 c 258
 1600 283 l 258
 1556 93 1359 -35 1182 -35 c 256
 1005 -35 876 93 920 283 c 258
955 283 m 258
 916 113 1034 5 1191 5 c 256
 1348 5 1526 113 1565 283 c 258
 1573 318 l 258
 1612 488 1484 595 1327 595 c 256
 1170 595 1002 488 963 318 c 258
 955 283 l 258
1573 1381 m 258
 304 16 l 258
 292 3 285 -3 274 -3 c 258
 272 -3 l 258
 260 -3 253 6 265 19 c 258
 1535 1384 l 258
 1546 1398 1553 1403 1564 1403 c 258
 1565 1403 l 258
 1578 1403 1584 1395 1573 1381 c 258
EndSplineSet
EndChar

StartChar: fraction
Encoding: 8260 8260 128
Width: 930
VWidth: 1920
Flags: HMW
LayerCount: 2
Fore
SplineSet
990 1277 m 2
 992 1275 l 2
 995 1271 995 1265 990 1259 c 2
 62 163 l 2
 57 157 45 154 41 160 c 10
 40 161 l 2
 37 165 39 171 44 177 c 10
 972 1273 l 2
 977 1279 986 1280 990 1277 c 2
EndSplineSet
EndChar

StartChar: uni2074
Encoding: 8308 8308 129
Width: 676
VWidth: 1920
Flags: HMW
LayerCount: 2
Fore
SplineSet
730 884 m 2
 730 882 l 2
 728 873 718 868 704 868 c 2
 582 868 l 257
 531 646 l 2
 527 630 517 625 510 625 c 2
 508 625 l 2
 501 625 493 630 497 646 c 2
 548 868 l 257
 138 868 l 2
 124 868 118 872 121 884 c 2
 123 894 l 2
 124 898 128 909 135 916 c 2
 670 1454 l 2
 682 1466 689 1470 701 1470 c 2
 705 1470 l 2
 714 1470 720 1463 718 1454 c 2
 589 898 l 257
 711 898 l 2
 725 898 732 893 730 884 c 2
561 898 m 257
 688 1446 l 257
 150 898 l 257
 561 898 l 257
EndSplineSet
EndChar

StartChar: uni2073
Encoding: 8307 8307 130
Width: 721
VWidth: 1920
Flags: HMW
LayerCount: 2
Fore
SplineSet
209 878 m 2
 211 878 l 2
 222 878 225 870 222 858 c 2
 215 826 l 2
 187 704 253 639 378 639 c 0
 528 639 621 713 651 841 c 2
 664 898 l 2
 691 1016 622 1066 476 1066 c 2
 438 1066 l 2
 430 1066 423 1071 425 1080 c 2
 426 1082 l 2
 428 1091 437 1096 445 1096 c 2
 471 1096 l 2
 621 1096 697 1142 721 1244 c 2
 730 1283 l 2
 754 1389 715 1461 575 1461 c 0
 445 1461 360 1391 330 1261 c 2
 319 1214 l 2
 317 1204 311 1197 302 1197 c 2
 301 1197 l 2
 292 1197 289 1204 291 1214 c 2
 302 1261 l 2
 334 1401 424 1491 582 1491 c 0
 740 1491 789 1418 757 1280 c 2
 753 1265 l 2
 718 1115 621 1077 467 1077 c 1
 482 1082 l 1
 636 1082 730 1033 695 883 c 2
 684 838 l 2
 651 694 549 609 371 609 c 0
 220 609 149 689 181 826 c 2
 188 858 l 2
 191 870 198 878 209 878 c 2
EndSplineSet
EndChar

StartChar: uni2072
Encoding: 8306 8306 131
Width: 692
VWidth: 1920
Flags: HMW
LayerCount: 2
Fore
SplineSet
150 693 m 258
 200 909 670 1029 723 1257 c 258
 729 1284 l 258
 756 1400 720 1468 586 1468 c 256
 444 1468 355 1392 319 1238 c 258
 309 1194 l 2
 306 1180 299 1173 291 1173 c 2
 289 1173 l 2
 281 1173 278 1180 281 1194 c 2
 291 1238 l 258
 329 1402 417 1498 593 1498 c 256
 751 1498 789 1419 757 1281 c 258
 751 1254 l 258
 696 1016 213 868 168 675 c 258
 166 669 l 257
 600 669 l 2
 614 669 618 663 616 654 c 2
 616 652 l 2
 614 643 607 637 593 637 c 2
 151 637 l 2
 144 637 139 644 141 653 c 2
 150 693 l 258
EndSplineSet
EndChar

StartChar: uni2070
Encoding: 8304 8304 132
Width: 770
VWidth: 1920
Flags: HMW
LayerCount: 2
Fore
SplineSet
173 923 m 258
 232 1178 l 258
 277 1373 418 1491 609 1491 c 256
 800 1491 887 1373 842 1178 c 258
 783 923 l 258
 738 727 597 609 406 609 c 256
 215 609 128 727 173 923 c 258
210 935 m 258
 169 756 243 639 413 639 c 256
 583 639 711 756 752 935 c 258
 805 1166 l 258
 846 1345 772 1461 602 1461 c 256
 432 1461 304 1345 263 1166 c 258
 210 935 l 258
EndSplineSet
EndChar

StartChar: uni2075
Encoding: 8309 8309 133
Width: 754
VWidth: 1920
Flags: HMW
LayerCount: 2
Fore
SplineSet
237 850 m 2
 238 850 l 2
 247 850 246 842 245 838 c 0
 220 694 263 632 401 632 c 0
 540 632 633 706 671 872 c 2
 682 917 l 2
 721 1087 664 1186 534 1186 c 0
 372 1186 341 1063 306 1021 c 0
 302 1016 296 1010 287 1010 c 2
 285 1010 l 2
 279 1010 276 1013 279 1021 c 2
 441 1449 l 2
 445 1460 450 1463 460 1463 c 2
 841 1463 l 2
 853 1463 855 1456 854 1452 c 2
 854 1450 l 2
 852 1440 832 1433 730 1433 c 2
 467 1433 l 1
 326 1070 l 1
 313 1070 l 1
 363 1144 385 1216 541 1216 c 0
 671 1216 762 1117 716 919 c 2
 707 880 l 2
 664 692 556 602 394 602 c 0
 234 602 199 694 223 838 c 0
 224 842 228 850 237 850 c 2
EndSplineSet
EndChar

StartChar: uni2076
Encoding: 8310 8310 134
Width: 836
VWidth: 1920
Flags: HMW
LayerCount: 2
Fore
SplineSet
593 1154 m 256
 403 1154 276 1015 255 925 c 258
 245 883 l 257
 243 943 l 257
 279 1101 476 1184 600 1184 c 256
 764 1184 833 1068 795 904 c 258
 788 874 l 258
 749 707 628 609 443 609 c 256
 257 609 178 730 228 946 c 258
 272 1136 l 258
 325 1364 445 1491 641 1491 c 256
 819 1491 873 1389 848 1279 c 258
 846 1271 l 2
 843 1258 837 1250 827 1250 c 2
 825 1250 l 2
 815 1250 811 1258 814 1271 c 2
 816 1279 l 258
 839 1379 802 1461 634 1461 c 256
 468 1461 351 1343 303 1133 c 258
 245 883 l 258
 223 789 258 639 450 639 c 256
 579 639 716 712 755 880 c 258
 761 904 l 258
 796 1054 747 1154 593 1154 c 256
EndSplineSet
EndChar

StartChar: uni2077
Encoding: 8311 8311 135
Width: 652
VWidth: 1920
Flags: HMW
LayerCount: 2
Fore
SplineSet
851 1440 m 2
 277 652 l 2
 265 635 255 627 245 627 c 2
 244 627 l 6
 229 627 222 640 236 660 c 2
 807 1434 l 257
 297 1434 l 2
 287 1434 279 1438 282 1450 c 2
 283 1454 l 2
 286 1465 295 1470 305 1470 c 2
 847 1470 l 2
 862 1470 865 1459 851 1440 c 2
EndSplineSet
EndChar

StartChar: uni2078
Encoding: 8312 8312 136
Width: 812
VWidth: 1920
Flags: HMW
LayerCount: 2
Fore
SplineSet
434 639 m 256
 612 639 681 707 715 855 c 258
 723 886 l 258
 755 1024 628 1056 530 1056 c 256
 432 1056 291 1024 259 886 c 258
 251 855 l 258
 217 707 256 639 434 639 c 256
537 1086 m 260
 707 1086 757 1163 773 1234 c 258
 780 1263 l 262
 809 1389 782 1461 623 1461 c 260
 474 1461 405 1389 376 1263 c 262
 369 1234 l 258
 353 1163 367 1086 537 1086 c 260
553 1076 m 257
 721 1076 784 1004 752 865 c 258
 745 838 l 258
 711 690 632 609 427 609 c 256
 222 609 179 690 213 838 c 258
 220 865 l 258
 252 1004 347 1076 515 1076 c 257
 516 1072 l 257
 357 1075 311 1132 342 1265 c 258
 346 1280 l 258
 377 1413 469 1491 630 1491 c 256
 791 1491 849 1413 818 1280 c 258
 814 1265 l 258
 783 1132 711 1075 550 1072 c 257
 553 1076 l 257
EndSplineSet
EndChar

StartChar: uni2079
Encoding: 8313 8313 137
Width: 826
VWidth: 1920
Flags: HMW
LayerCount: 2
Fore
SplineSet
477 946 m 256
 667 946 795 1085 816 1175 c 258
 826 1217 l 257
 828 1157 l 257
 792 999 594 916 470 916 c 256
 306 916 248 1032 286 1196 c 258
 293 1226 l 258
 332 1393 443 1491 628 1491 c 256
 814 1491 892 1370 842 1154 c 258
 799 964 l 258
 746 736 616 609 420 609 c 256
 242 609 178 711 203 821 c 258
 205 833 l 2
 208 846 216 853 225 853 c 2
 227 853 l 2
 236 853 240 846 237 833 c 2
 235 821 l 258
 212 721 259 639 427 639 c 256
 593 639 720 757 768 967 c 258
 826 1217 l 258
 848 1311 813 1461 621 1461 c 256
 492 1461 365 1388 326 1220 c 258
 320 1196 l 258
 285 1046 323 946 477 946 c 256
EndSplineSet
EndChar

StartChar: uni00B9
Encoding: 185 185 138
Width: 514
VWidth: 1920
Flags: HMW
LayerCount: 2
Fore
SplineSet
467 1456 m 0
 474 1468 482 1487 485 1497 c 0
 487 1504 491 1510 496 1510 c 2
 497 1510 l 2
 502 1510 502 1506 500 1496 c 2
 306 656 l 2
 303 645 296 640 289 640 c 2
 287 640 l 2
 280 640 273 645 276 656 c 2
 454 1423 l 6
 458 1440 465 1452 467 1456 c 0
EndSplineSet
EndChar

StartChar: cent
Encoding: 162 162 154
Width: 954
VWidth: 1920
Flags: HMW
LayerCount: 2
Fore
SplineSet
671 1242 m 6
 672 1242 l 6
 679 1242 683 1237 681 1230 c 6
 355 -180 l 6
 353 -187 348 -192 341 -192 c 6
 340 -192 l 6
 333 -192 328 -187 330 -180 c 6
 656 1230 l 6
 658 1237 664 1242 671 1242 c 6
EndSplineSet
Refer: 40 99 N 1 0 0 1 0 0 2
EndChar

StartChar: uni203D
Encoding: 8253 8253 157
Width: 1080
VWidth: 1920
Flags: HMW
LayerCount: 2
Fore
SplineSet
644 950 m 2
 674 1080 l 2
 676 1087 684 1093 691 1093 c 6
 694 1093 l 6
 701 1093 706 1087 704 1080 c 2
 674 950 l 2
 672 943 672 937 669 930 c 2
 551 410 l 2
 548 403 544 400 537 400 c 2
 537 400 l 2
 530 400 528 403 529 410 c 2
 641 930 l 2
 642 937 642 943 644 950 c 2
436 -3 m 258
 432 -3 l 258
 419 -3 413 6 416 18 c 258
 456 192 l 258
 459 204 469 213 482 213 c 258
 486 213 l 258
 499 213 505 204 502 192 c 258
 462 18 l 258
 459 6 449 -3 436 -3 c 258
541 400 m 2
 536 400 l 2
 528 400 527 403 528 409 c 0
 609 731 923 768 986 1043 c 258
 992 1068 l 258
 1038 1268 1000 1405 793 1405 c 256
 573 1405 447 1265 398 1052 c 258
 377 962 l 2
 375 955 367 947 360 947 c 2
 358 947 l 2
 351 947 345 955 347 962 c 2
 368 1052 l 258
 420 1276 563 1435 800 1435 c 256
 1027 1435 1074 1293 1023 1073 c 258
 1017 1048 l 258
 945 735 619 713 551 408 c 0
 550 403 548 400 541 400 c 2
EndSplineSet
EndChar

StartChar: ordfeminine
Encoding: 170 170 159
Width: 847
VWidth: 1920
Flags: HMW
LayerCount: 2
Fore
SplineSet
243 834 m 256
 217 720 246 639 374 639 c 256
 578 639 704 806 738 952 c 257
 746 902 l 257
 713 759 558 609 367 609 c 256
 218 609 184 709 213 834 c 256
 243 965 303 1040 548 1079 c 256
 678 1099 786 1159 805 1242 c 257
 806 1202 l 257
 791 1139 668 1074 549 1054 c 256
 332 1017 271 954 243 834 c 256
715 852 m 258
 809 1262 l 258
 841 1402 780 1459 655 1459 c 256
 496 1459 405 1363 363 1230 c 256
 360 1220 355 1215 345 1215 c 258
 344 1215 l 258
 334 1215 330 1221 334 1232 c 256
 392 1380 478 1489 662 1489 c 256
 822 1489 874 1415 838 1257 c 258
 745 852 l 258
 724 760 728 699 753 656 c 260
 758 647 753 639 743 639 c 262
 741 639 l 262
 731 639 724 647 720 654 c 260
 695 697 694 759 715 852 c 258
EndSplineSet
EndChar

StartChar: exclamdown
Encoding: 161 161 160
Width: 540
VWidth: 1920
Flags: HMW
LayerCount: 2
Fore
SplineSet
391 1053 m 258
 395 1053 l 258
 408 1053 414 1044 411 1032 c 258
 371 858 l 258
 368 846 358 837 345 837 c 258
 341 837 l 258
 328 837 322 846 325 858 c 258
 365 1032 l 258
 368 1044 378 1053 391 1053 c 258
186 93 m 258
 76 -384 l 258
 73 -397 67 -403 58 -403 c 258
 56 -403 l 258
 47 -403 43 -397 46 -384 c 258
 156 93 l 258
 159 104 182 195 185 206 c 258
 279 606 l 258
 282 617 285 622 293 622 c 258
 295 622 l 258
 303 622 304 617 301 606 c 258
 211 206 l 258
 208 195 189 104 186 93 c 258
EndSplineSet
EndChar

StartChar: AE
Encoding: 198 198 161
Width: 2200
VWidth: 1920
Flags: HMW
LayerCount: 2
Fore
SplineSet
500 530 m 257
 1160 530 l 257
 1160 500 l 257
 500 500 l 257
 500 530 l 257
1385 1400 m 5
 15 10 l 6
 5 0 -2 -4 -9 -4 c 6
 -11 -4 l 6
 -22 -4 -26 9 -14 21 c 6
 1327 1377 l 6
 1339 1389 1348 1400 1365 1400 c 6
 1385 1400 l 5
EndSplineSet
Refer: 16 69 N 1 0 0 1 920 0 2
EndChar

StartChar: questiondown
Encoding: 191 191 162
Width: 1080
VWidth: 1920
Flags: HMW
LayerCount: 2
Fore
SplineSet
703 1053 m 262
 707 1053 l 262
 720 1053 726 1044 723 1032 c 262
 683 858 l 262
 680 846 670 837 657 837 c 262
 653 837 l 262
 640 837 634 846 637 858 c 262
 677 1032 l 262
 680 1044 690 1053 703 1053 c 262
622 653 m 262
 624 653 l 262
 633 653 637 647 635 638 c 260
 541 318 210 271 144 -13 c 262
 136 -48 l 262
 83 -279 162 -405 359 -405 c 260
 579 -405 731 -246 787 -2 c 262
 806 82 l 262
 809 95 813 101 824 101 c 262
 825 101 l 262
 836 101 839 95 836 82 c 262
 817 -2 l 262
 756 -267 600 -435 353 -435 c 260
 136 -435 47 -304 105 -53 c 262
 111 -28 l 262
 186 295 513 335 603 639 c 260
 606 647 613 653 622 653 c 262
EndSplineSet
EndChar

StartChar: yen
Encoding: 165 165 163
Width: 1125
VWidth: 1920
Flags: HMW
LayerCount: 2
Fore
SplineSet
106 385 m 262
 106 390 l 262
 106 397 109 400 116 400 c 262
 996 400 l 262
 1003 400 1006 397 1006 390 c 262
 1006 385 l 262
 1006 378 1003 375 996 375 c 262
 116 375 l 262
 109 375 106 378 106 385 c 262
146 555 m 258
 146 560 l 258
 146 567 149 570 156 570 c 258
 1036 570 l 258
 1043 570 1046 567 1046 560 c 258
 1046 555 l 258
 1046 548 1043 545 1036 545 c 258
 156 545 l 258
 149 545 146 548 146 555 c 258
EndSplineSet
Refer: 36 89 N 1 0 0 1 0 0 2
EndChar

StartChar: gravecomb
Encoding: 768 768 164
Width: 0
Flags: HMW
AnchorPoint: "top" -452 1000 mark 0
LayerCount: 2
Fore
SplineSet
-382 1102 m 262
 -387 1102 l 262
 -396 1102 -404 1108 -411 1118 c 262
 -573 1380 l 262
 -580 1392 -566 1414 -544 1414 c 262
 -541 1414 l 262
 -530 1414 -519 1404 -510 1387 c 262
 -366 1121 l 262
 -361 1110 -373 1102 -382 1102 c 262
EndSplineSet
EndChar

StartChar: acutecomb
Encoding: 769 769 165
Width: 0
Flags: HMW
AnchorPoint: "top" -437 1000 mark 0
LayerCount: 2
Fore
SplineSet
-459 1102 m 262
 -468 1102 -476 1110 -465 1121 c 262
 -199 1387 l 262
 -182 1404 -167 1414 -156 1414 c 262
 -153 1414 l 262
 -131 1414 -125 1392 -138 1380 c 262
 -422 1118 l 262
 -433 1108 -445 1102 -454 1102 c 262
 -459 1102 l 262
EndSplineSet
EndChar

StartChar: uni0302
Encoding: 770 770 166
Width: 0
VWidth: 1920
Flags: HMW
AnchorPoint: "top" -448 1000 mark 0
LayerCount: 2
Fore
SplineSet
-361 1381 m 257
 -622 1110 l 2
 -627 1105 -638 1098 -645 1098 c 2
 -646 1098 l 2
 -653 1098 -655 1104 -650 1110 c 2
 -383 1390 l 2
 -376 1398 -369 1403 -357 1403 c 6
 -355 1403 l 2
 -343 1403 -338 1398 -335 1390 c 2
 -188 1110 l 2
 -185 1104 -186 1097 -198 1097 c 2
 -199 1097 l 2
 -209 1097 -213 1105 -216 1110 c 2
 -361 1381 l 257
EndSplineSet
EndChar

StartChar: tildecomb
Encoding: 771 771 167
Width: 0
Flags: HMW
AnchorPoint: "top" -467 1000 mark 0
LayerCount: 2
Fore
SplineSet
-515 1399 m 256
 -587 1399 -650 1350 -694 1217 c 0
 -696 1211 -702 1206 -709 1206 c 2
 -710 1206 l 2
 -717 1206 -720 1211 -719 1217 c 0
 -683 1355 -599 1429 -508 1429 c 256
 -369 1429 -373 1212 -251 1212 c 256
 -179 1212 -115 1261 -72 1393 c 0
 -69 1400 -65 1404 -58 1404 c 6
 -57 1404 l 6
 -50 1404 -46 1400 -48 1393 c 0
 -84 1255 -168 1182 -258 1182 c 256
 -397 1182 -393 1399 -515 1399 c 256
EndSplineSet
EndChar

StartChar: uni0304
Encoding: 772 772 168
Width: 0
VWidth: 1920
Flags: HMW
AnchorPoint: "top" -630 1000 mark 0
LayerCount: 2
Fore
SplineSet
-835 1252 m 10
 -835 1253 l 18
 -835 1261 -829 1270 -818 1270 c 10
 -308 1270 l 18
 -296 1270 -290 1261 -290 1253 c 10
 -290 1252 l 18
 -290 1244 -296 1235 -308 1235 c 10
 -818 1235 l 18
 -829 1235 -835 1244 -835 1252 c 10
EndSplineSet
EndChar

StartChar: uni0306
Encoding: 774 774 169
Width: 0
VWidth: 1920
Flags: HMW
AnchorPoint: "top" -449 1000 mark 0
LayerCount: 2
Fore
SplineSet
-402 1205 m 0
 -232 1205 -131 1319 -106 1427 c 0
 -104 1435 -98 1440 -91 1440 c 2
 -90 1440 l 2
 -83 1440 -77 1435 -81 1424 c 0
 -122 1282 -226 1175 -409 1175 c 0
 -592 1175 -648 1283 -621 1427 c 0
 -619 1435 -613 1440 -606 1440 c 2
 -605 1440 l 2
 -598 1440 -594 1435 -596 1425 c 0
 -620 1315 -570 1205 -402 1205 c 0
EndSplineSet
EndChar

StartChar: uni0307
Encoding: 775 775 170
Width: 0
Flags: HMW
AnchorPoint: "top" -628 1000 mark 0
LayerCount: 2
Fore
SplineSet
-545 1259 m 2
 -555 1259 l 2
 -572 1259 -587 1272 -587 1289 c 2
 -587 1301 l 2
 -587 1318 -572 1331 -555 1331 c 2
 -545 1331 l 2
 -528 1331 -513 1318 -513 1301 c 2
 -513 1289 l 2
 -513 1272 -528 1259 -545 1259 c 2
EndSplineSet
EndChar

StartChar: uni0308
Encoding: 776 776 171
Width: 0
Flags: HMW
AnchorPoint: "top" -648 1000 mark 0
LayerCount: 2
Fore
SplineSet
-652 1259 m 2
 -662 1259 l 2
 -679 1259 -694 1272 -694 1289 c 2
 -694 1301 l 2
 -694 1318 -679 1331 -662 1331 c 2
 -652 1331 l 2
 -635 1331 -620 1318 -620 1301 c 2
 -620 1289 l 2
 -620 1272 -635 1259 -652 1259 c 2
-447 1259 m 2
 -457 1259 l 2
 -474 1259 -489 1272 -489 1289 c 2
 -489 1301 l 2
 -489 1318 -474 1331 -457 1331 c 2
 -447 1331 l 2
 -430 1331 -415 1318 -415 1301 c 2
 -415 1289 l 2
 -415 1272 -430 1259 -447 1259 c 2
EndSplineSet
EndChar

StartChar: uni030A
Encoding: 778 778 172
Width: 0
Flags: HMW
AnchorPoint: "top" -604 1000 mark 0
LayerCount: 2
Fore
SplineSet
-360 1312 m 0
 -360 1208 -450 1122 -554 1122 c 0
 -660 1122 -750 1206 -750 1312 c 0
 -750 1414 -660 1502 -554 1502 c 0
 -448 1502 -360 1420 -360 1312 c 0
-390 1312 m 0
 -390 1408 -460 1472 -554 1472 c 0
 -648 1472 -720 1402 -720 1312 c 0
 -720 1218 -648 1152 -554 1152 c 0
 -462 1152 -390 1222 -390 1312 c 0
EndSplineSet
EndChar

StartChar: uni030B
Encoding: 779 779 173
Width: 0
Flags: HMW
AnchorPoint: "top" -507 1000 mark 0
LayerCount: 2
Fore
SplineSet
-339 1102 m 262
 -348 1102 -356 1110 -345 1121 c 262
 -79 1387 l 262
 -62 1404 -47 1414 -36 1414 c 262
 -33 1414 l 262
 -11 1414 -5 1392 -18 1380 c 262
 -302 1118 l 262
 -313 1108 -325 1102 -334 1102 c 262
 -339 1102 l 262
-609 1102 m 262
 -618 1102 -626 1110 -615 1121 c 262
 -349 1387 l 262
 -332 1404 -317 1414 -306 1414 c 262
 -303 1414 l 262
 -281 1414 -275 1392 -288 1380 c 262
 -572 1118 l 262
 -583 1108 -595 1102 -604 1102 c 262
 -609 1102 l 262
EndSplineSet
EndChar

StartChar: uni030C
Encoding: 780 780 174
Width: 0
Flags: HMW
AnchorPoint: "top" -443 1000 mark 0
LayerCount: 2
Fore
SplineSet
-411 1139 m 257
 -150 1410 l 2
 -145 1415 -137 1423 -130 1423 c 2
 -129 1423 l 2
 -122 1423 -117 1416 -122 1410 c 2
 -389 1130 l 6
 -396 1122 -405 1117 -415 1117 c 6
 -417 1117 l 6
 -427 1117 -433 1123 -437 1130 c 6
 -584 1410 l 2
 -587 1416 -583 1423 -571 1423 c 2
 -570 1423 l 2
 -560 1423 -559 1415 -556 1410 c 2
 -411 1139 l 257
EndSplineSet
EndChar

StartChar: uni030F
Encoding: 783 783 175
Width: 0
Flags: HMW
AnchorPoint: "top" -397 1000 mark 0
LayerCount: 2
Fore
SplineSet
-491 1102 m 258
 -496 1102 l 258
 -505 1102 -513 1108 -520 1118 c 258
 -682 1380 l 258
 -689 1392 -675 1414 -653 1414 c 258
 -650 1414 l 258
 -639 1414 -628 1404 -619 1387 c 258
 -475 1121 l 258
 -470 1110 -482 1102 -491 1102 c 258
-221 1102 m 258
 -226 1102 l 258
 -235 1102 -243 1108 -250 1118 c 258
 -412 1380 l 258
 -419 1392 -405 1414 -383 1414 c 258
 -380 1414 l 258
 -369 1414 -358 1404 -349 1387 c 258
 -205 1121 l 258
 -200 1110 -212 1102 -221 1102 c 258
EndSplineSet
EndChar

StartChar: uni0311
Encoding: 785 785 176
Width: 0
Flags: HMW
AnchorPoint: "top" -493 1000 mark 0
LayerCount: 2
Fore
SplineSet
-400 1405 m 0
 -570 1405 -671 1291 -696 1183 c 0
 -698 1175 -704 1170 -711 1170 c 2
 -712 1170 l 2
 -719 1170 -724 1175 -720 1186 c 0
 -679 1328 -576 1435 -393 1435 c 0
 -210 1435 -154 1327 -181 1183 c 0
 -183 1175 -189 1170 -196 1170 c 6
 -197 1170 l 6
 -204 1170 -207 1175 -205 1185 c 0
 -181 1295 -232 1405 -400 1405 c 0
EndSplineSet
EndChar

StartChar: dotbelowcomb
Encoding: 803 803 177
Width: 0
Flags: HMW
AnchorPoint: "bottom" -491 0 mark 0
LayerCount: 2
Fore
SplineSet
-545 -291 m 2
 -555 -291 l 2
 -572 -291 -587 -278 -587 -261 c 2
 -587 -249 l 2
 -587 -232 -572 -219 -555 -219 c 2
 -545 -219 l 2
 -528 -219 -513 -232 -513 -249 c 2
 -513 -261 l 2
 -513 -278 -528 -291 -545 -291 c 2
EndSplineSet
EndChar

StartChar: uni0326
Encoding: 806 806 178
Width: 0
Flags: HMW
AnchorPoint: "bottom" -681 0 mark 0
LayerCount: 2
Fore
SplineSet
-801 -373 m 2
 -802 -373 l 2
 -806 -373 -810.43684775 -366.200149722 -805 -359 c 2
 -768 -310 l 257
 -769 -310 l 2
 -782 -310 -788 -295 -788 -282 c 2
 -788 -275 l 2
 -788 -253 -777 -242 -755 -242 c 2
 -748 -242 l 2
 -726 -242 -715 -253 -715 -275 c 2
 -715 -279 l 2
 -715 -298 -730.71882488 -310.509684505 -741 -320 c 2
 -793 -368 l 2
 -797.182639028 -371.860897564 -799 -373 -801 -373 c 2
EndSplineSet
EndChar

StartChar: uni0327
Encoding: 807 807 179
Width: 1200
Flags: HMW
AnchorPoint: "bottom" -651 0 mark 0
LayerCount: 2
Fore
SplineSet
-868 -500 m 4
 -947 -500 -1000 -486 -1045 -451 c 4
 -1053 -444 -1051 -435 -1047 -429 c 6
 -1046 -427 l 6
 -1041 -420 -1030 -418 -1022 -423 c 4
 -976 -451 -961 -470 -862 -470 c 4
 -728 -470 -672 -404 -658 -342 c 4
 -636 -246 -726 -221 -855 -220 c 4
 -868 -220 -876 -221 -877 -217 c 6
 -878 -215 l 6
 -880 -209 -871 -203 -864 -196 c 6
 -665 10 l 5
 -635 10 l 5
 -860 -211 l 5
 -854 -210 -807 -210 -792 -210 c 4
 -706 -210 -605 -242 -628 -342 c 4
 -648 -430 -724 -500 -868 -500 c 4
EndSplineSet
EndChar

StartChar: uni0328
Encoding: 808 808 180
Width: 1200
Flags: HMW
AnchorPoint: "ogonek" -671 0 mark 0
LayerCount: 2
Fore
SplineSet
-690 -425 m 6
 -691 -427 l 6
 -693 -434 -698 -440 -710 -440 c 6
 -787 -440 l 6
 -955 -440 -1013 -358 -986 -240 c 4
 -959 -122 -837 -52 -660 20 c 5
 -655 0 l 5
 -826 -74 -927 -116 -956 -240 c 4
 -982 -352 -930 -410 -770 -410 c 6
 -703 -410 l 6
 -691 -410 -688 -418 -690 -425 c 6
EndSplineSet
EndChar

StartChar: uni0312
Encoding: 786 786 181
Width: 0
Flags: HMW
AnchorPoint: "top" -505 950 mark 0
LayerCount: 2
Fore
SplineSet
-362 1431 m 262
 -361 1431 l 262
 -353 1431 -353 1423 -357 1413 c 270
 -437 1220 l 261
 -435 1220 l 262
 -422 1220 -420 1215 -423 1201 c 262
 -463 1027 l 262
 -466 1015 -475 1007 -488 1007 c 262
 -492 1007 l 262
 -505 1007 -511 1015 -508 1027 c 262
 -472 1182 l 262
 -469 1193 -461 1212 -456 1223 c 262
 -380 1411 l 262
 -374 1426 -369 1431 -362 1431 c 262
EndSplineSet
EndChar

StartChar: sterling
Encoding: 163 163 182
Width: 1280
VWidth: 1920
Flags: HMW
LayerCount: 2
Fore
SplineSet
85 697 m 258
 85 698 l 258
 87 708 96 710 109 710 c 258
 759 710 l 258
 772 710 778 708 776 698 c 258
 776 697 l 258
 774 687 766 685 753 685 c 258
 103 685 l 258
 90 685 83 687 85 697 c 258
-23 38 m 256
 119 152 280 309 327 514 c 256
 377 732 208 815 261 1043 c 256
 314 1273 479 1435 766 1435 c 256
 1060 1435 1108 1266 1056 977 c 256
 1053 963 1048 957 1037 957 c 258
 1036 957 l 258
 1025 957 1024 963 1026 977 c 256
 1074 1256 1024 1405 759 1405 c 256
 492 1405 339 1253 291 1043 c 256
 240 822 409 740 357 514 c 256
 315 332 144 121 5 35 c 257
 912 35 l 258
 925 35 931 29 928 18 c 262
 928 17 l 262
 925 6 917 0 904 0 c 258
 -24 0 l 258
 -37 0 -45 4 -42 15 c 258
 -41 17 l 258
 -39 25 -34 30 -23 38 c 256
EndSplineSet
EndChar

StartChar: currency
Encoding: 164 164 183
Width: 1112
VWidth: 0
Flags: HMW
LayerCount: 2
Fore
SplineSet
1155 1164 m 258
 1156 1163 l 258
 1162 1155 1157 1147 1146 1138 c 258
 1024 1039 l 258
 1018 1034 1014 1034 1010 1039 c 258
 1004 1047 l 258
 1000 1052 1001 1057 1007 1062 c 258
 1128 1160 l 258
 1139 1169 1149 1172 1155 1164 c 258
189 386 m 258
 195 378 l 258
 199 373 198 368 192 363 c 258
 59 255 l 258
 48 246 38 242 32 250 c 258
 31 251 l 258
 25 259 30 268 41 277 c 258
 175 386 l 258
 181 391 185 391 189 386 c 258
242 1164 m 258
 243 1165 l 258
 253 1173 261 1169 268 1160 c 258
 351 1052 l 258
 355 1047 353 1042 347 1037 c 258
 338 1029 l 258
 332 1024 328 1024 324 1029 c 258
 240 1138 l 258
 233 1147 232 1156 242 1164 c 258
847 368 m 258
 857 376 l 258
 863 381 867 381 871 376 c 258
 947 277 l 258
 954 268 955 259 945 251 c 258
 944 250 l 258
 934 242 926 246 919 255 c 258
 843 353 l 258
 839 358 841 363 847 368 c 258
107 710 m 256
 169 979 441 1200 710 1200 c 256
 979 1200 1149 979 1087 710 c 256
 1025 441 753 220 484 220 c 256
 215 220 45 441 107 710 c 256
137 710 m 256
 77 451 242 250 491 250 c 256
 740 250 997 451 1057 710 c 256
 1114 959 952 1170 703 1170 c 256
 454 1170 194 959 137 710 c 256
EndSplineSet
EndChar

StartChar: brokenbar
Encoding: 166 166 184
Width: 415
VWidth: 1920
Flags: HMW
LayerCount: 2
Fore
SplineSet
184 433 m 258
 192 433 l 258
 203 433 207 427 204 414 c 258
 29 -344 l 258
 26 -357 19 -363 8 -363 c 258
 0 -363 l 258
 -11 -363 -14 -357 -11 -344 c 258
 164 414 l 258
 167 427 173 433 184 433 c 258
454 1603 m 258
 462 1603 l 258
 473 1603 477 1597 474 1584 c 258
 299 826 l 258
 296 813 289 807 278 807 c 258
 270 807 l 258
 259 807 256 813 259 826 c 258
 434 1584 l 258
 437 1597 443 1603 454 1603 c 258
EndSplineSet
EndChar

StartChar: section
Encoding: 167 167 185
Width: 1086
VWidth: 1920
Flags: HMW
LayerCount: 2
Fore
SplineSet
564 870 m 257
 327 860 167 791 131 633 c 256
 95 476 269 349 427 246 c 256
 636 110 771 67 734 -93 c 256
 692 -275 528 -400 301 -400 c 256
 67 -400 14 -267 46 -63 c 256
 48 -51 59 -44 70 -44 c 258
 71 -44 l 258
 82 -44 88 -51 86 -64 c 256
 58 -250 107 -370 308 -370 c 256
 516 -370 667 -253 704 -93 c 256
 738 55 545 131 401 222 c 256
 154 378 69 496 101 633 c 256
 143 815 313 880 567 880 c 257
 564 870 l 257
531 165 m 257
 773 195 920 254 961 432 c 256
 997 589 817 691 659 794 c 256
 450 930 321 998 358 1158 c 256
 400 1340 527 1435 754 1435 c 256
 988 1435 1050 1302 1018 1098 c 256
 1016 1086 1012 1077 1001 1077 c 258
 1000 1077 l 258
 989 1077 987 1086 989 1099 c 256
 1015 1275 958 1405 747 1405 c 256
 539 1405 425 1318 388 1158 c 256
 354 1010 540 909 684 818 c 256
 931 662 1027 589 991 432 c 256
 944 230 762 155 528 155 c 257
 531 165 l 257
EndSplineSet
EndChar

StartChar: copyright
Encoding: 169 169 186
Width: 1484
VWidth: 0
Flags: HMW
LayerCount: 2
Fore
SplineSet
1061 545 m 260
 1020 399 863 229 674 229 c 256
 442 229 384 393 437 621 c 258
 460 720 l 258
 513 948 645 1111 877 1111 c 256
 947 1111 1165 1093 1111 839 c 256
 1109 831 1106 826 1100 826 c 258
 1099 826 l 258
 1092 826 1091 831 1093 839 c 256
 1126 996 1049 1093 879 1093 c 256
 653 1093 528 936 478 720 c 258
 455 621 l 258
 405 405 458 247 684 247 c 256
 825 247 992 377 1043 545 c 260
 1045 553 1048 558 1055 558 c 262
 1056 558 l 262
 1063 558 1063 553 1061 545 c 260
1473 668 m 256
 1384 284 999 -28 615 -28 c 256
 231 -28 -10 284 79 668 c 256
 168 1052 552 1366 936 1366 c 256
 1320 1366 1562 1052 1473 668 c 256
1443 668 m 256
 1528 1036 1297 1336 929 1336 c 256
 561 1336 194 1036 109 668 c 256
 24 300 253 2 621 2 c 256
 989 2 1358 300 1443 668 c 256
EndSplineSet
EndChar

StartChar: registered
Encoding: 174 174 188
Width: 1484
VWidth: 0
Flags: HMW
LayerCount: 2
Fore
SplineSet
629 1072 m 257
 540 685 l 257
 828 685 l 258
 940 685 1054 741 1080 855 c 258
 1085 875 l 258
 1114 1001 1059 1072 917 1072 c 258
 629 1072 l 257
922 1090 m 258
 1070 1090 1135 1013 1103 875 c 258
 1100 861 l 258
 1071 735 968 676 826 676 c 257
 827 682 l 257
 981 682 1044 647 1011 503 c 258
 998 447 l 258
 982 379 983 306 1001 266 c 256
 1004 258 1005 255 1005 253 c 262
 1005 252 l 262
 1004 248 1002 245 996 245 c 258
 995 245 l 258
 989 245 985 250 983 257 c 256
 963 315 961 371 979 447 c 258
 992 503 l 258
 1025 647 955 673 825 673 c 258
 537 673 l 257
 442 260 l 258
 440 252 437 248 430 248 c 258
 429 248 l 258
 422 248 422 252 424 260 c 258
 612 1076 l 258
 614 1085 621 1090 630 1090 c 258
 922 1090 l 258
1473 668 m 256
 1384 284 999 -28 615 -28 c 256
 231 -28 -10 284 79 668 c 256
 168 1052 552 1366 936 1366 c 256
 1320 1366 1562 1052 1473 668 c 256
1443 668 m 256
 1528 1036 1297 1336 929 1336 c 256
 561 1336 194 1036 109 668 c 256
 24 300 253 2 621 2 c 256
 989 2 1358 300 1443 668 c 256
EndSplineSet
EndChar

StartChar: dotlessi
Encoding: 305 305 279
Width: 261
VWidth: 1879
Flags: HMW
AnchorPoint: "top" 252 1050 basechar 0
LayerCount: 2
Fore
SplineSet
265 1034 m 258
 30 16 l 258
 27 3 22 -3 11 -3 c 258
 9 -3 l 258
 -2 -3 -3 3 0 16 c 258
 235 1034 l 258
 238 1047 242 1053 253 1053 c 258
 255 1053 l 258
 266 1053 268 1047 265 1034 c 258
EndSplineSet
EndChar

StartChar: uni0237
Encoding: 567 567 291
Width: 261
VWidth: 1879
Flags: HMW
AnchorPoint: "top" 254 1050 basechar 0
LayerCount: 2
Fore
SplineSet
12 -59 m 2
 -37 -271 -110 -371 -209 -371 c 0
 -338 -371 -269 -200 -204 -107 c 0
 -200.914996911 -102.586072504 -198 -97 -191 -97 c 2
 -190 -97 l 2
 -180 -97 -176.020138511 -104.887543169 -181 -112 c 0
 -242.686741338 -200.10371247 -291 -340 -201 -340 c 0
 -103 -340 -47 -185 -18 -60 c 2
 234 1030 l 2
 237.832336745 1046.57637719 241 1053 250 1053 c 2
 251 1053 l 2
 262 1053 267.3963047 1044.67688817 264 1030 c 2
 12 -59 l 2
EndSplineSet
EndChar

StartChar: kgreenlandic
Encoding: 312 312 298
Width: 849
VWidth: 1879
Flags: HMW
LayerCount: 2
Fore
SplineSet
257 1063 m 258
 259 1063 l 258
 270 1063 271 1054 268 1041 c 258
 32 18 l 258
 29 5 24 -3 13 -3 c 258
 11 -3 l 258
 0 -3 -1 6 2 19 c 258
 238 1041 l 258
 241 1054 246 1063 257 1063 c 258
100 406 m 257
 842 1036 l 258
 856 1049 860 1053 869 1053 c 258
 870 1053 l 258
 882 1053 892.224555542 1037.36069681 874 1022 c 258
 104 373 l 257
 100 406 l 257
364 615 m 257
 390 637 l 257
 722 21 l 258
 729.840055368 6.4533912453 723 -3 712 -3 c 258
 710 -3 l 258
 699 -3 694.733828022 3.39682879703 689 14 c 258
 364 615 l 257
EndSplineSet
EndChar

StartChar: grave
Encoding: 96 96 339
Width: 623
VWidth: 0
Flags: HMW
LayerCount: 2
Fore
SplineSet
539 1102 m 258
 534 1102 l 258
 525 1102 517 1108 510 1118 c 258
 348 1380 l 258
 341 1392 355 1414 377 1414 c 258
 380 1414 l 258
 391 1414 402 1404 411 1387 c 258
 555 1121 l 258
 560 1110 548 1102 539 1102 c 258
EndSplineSet
EndChar

StartChar: longs
Encoding: 383 383 352
Width: 599
VWidth: 1879
Flags: HMW
LayerCount: 2
Fore
SplineSet
398 1194 m 2
 445 1397 500 1506 765 1444 c 0
 773.817704487 1441.93698989 783 1438 783 1431 c 2
 783 1430 l 2
 783 1420 774.695823832 1415.03081539 762 1418 c 0
 514 1476 477 1383 433 1194 c 2
 79 -338 l 2
 75.1695365524 -354.577033903 70 -363 59 -363 c 2
 57 -363 l 2
 46 -363 40.3888947313 -353.627721106 44 -338 c 2
 398 1194 l 2
EndSplineSet
EndChar

StartChar: uni0259
Encoding: 601 601 359
Width: 1110
VWidth: 1920
Flags: HMW
LayerCount: 2
Fore
SplineSet
232 721 m 0
 300 885 425 1085 718 1085 c 256
 947 1085 1055 912 983 602 c 258
 947 447 l 258
 878 147 679 -35 452 -35 c 256
 195 -35 135 161 161 376 c 256
 169 447 166 432 185 516 c 0
 186 521 190 524 197 524 c 2
 951 524 l 257
 944 495 l 257
 209 495 l 257
 136 158 235 -10 458 -10 c 256
 675 -10 855 177 917 447 c 258
 953 602 l 258
 1015 872 931 1060 714 1060 c 256
 462 1060 332 896 259 718 c 0
 257 714 251 707 242 707 c 6
 240 707 l 6
 231 707 230 715 232 721 c 0
EndSplineSet
EndChar

StartChar: logicalnot
Encoding: 172 172 373
Width: 1150
VWidth: 2048
Flags: HMW
LayerCount: 2
Fore
SplineSet
164 681 m 258
 165 684 l 258
 168 695 175 700 188 700 c 258
 999 700 l 258
 1015 700 1020 693 1016 677 c 258
 936 331 l 258
 933 318 928 312 918 312 c 258
 917 312 l 258
 907 312 903 318 906 331 c 258
 984 665 l 257
 180 665 l 258
 167 665 161 670 164 681 c 258
EndSplineSet
EndChar

StartChar: acute
Encoding: 180 180 374
Width: 619
VWidth: 0
Flags: HMW
LayerCount: 2
Fore
SplineSet
290 1102 m 262
 281 1102 273 1110 284 1121 c 262
 550 1387 l 262
 567 1404 582 1414 593 1414 c 262
 596 1414 l 262
 618 1414 624 1392 611 1380 c 262
 327 1118 l 262
 316 1108 304 1102 295 1102 c 262
 290 1102 l 262
EndSplineSet
EndChar

StartChar: degree
Encoding: 176 176 376
Width: 880
VWidth: 2048
Flags: HMW
LayerCount: 2
Fore
SplineSet
230 1083 m 258
 238 1118 l 258
 282 1308 469 1435 646 1435 c 256
 823 1435 962 1308 918 1118 c 258
 910 1083 l 258
 866 893 669 765 492 765 c 256
 315 765 186 893 230 1083 c 258
263 1073 m 262
 226 913 342 795 499 795 c 260
 656 795 836 913 873 1073 c 262
 885 1128 l 262
 922 1288 796 1405 639 1405 c 260
 482 1405 312 1288 275 1128 c 262
 263 1073 l 262
EndSplineSet
EndChar

StartChar: plusminus
Encoding: 177 177 377
Width: 1168
VWidth: 0
Flags: HMW
LayerCount: 2
Fore
SplineSet
43 262 m 262
 43 263 l 262
 43 272 49 275 61 275 c 262
 981 275 l 262
 993 275 999 270 999 263 c 262
 999 262 l 262
 999 255 993 250 981 250 c 262
 61 250 l 262
 49 250 43 253 43 262 c 262
220 1040 m 258
 220 1045 l 258
 220 1055 228 1060 240 1060 c 258
 1160 1060 l 258
 1172 1060 1180 1055 1180 1045 c 258
 1180 1040 l 258
 1180 1030 1172 1025 1160 1025 c 258
 240 1025 l 258
 228 1025 220 1030 220 1040 c 258
805 1498 m 258
 807 1498 l 258
 817 1498 819 1491 816 1479 c 258
 609 581 l 258
 606 569 601 561 591 561 c 258
 589 561 l 258
 579 561 576 569 579 581 c 258
 786 1479 l 258
 789 1491 795 1498 805 1498 c 258
EndSplineSet
EndChar

StartChar: ae
Encoding: 230 230 379
Width: 1738
VWidth: 1920
Flags: HMW
LayerCount: 2
Fore
SplineSet
111 263 m 0
 64 59 161 -5 309 -5 c 256
 563 -5 772 232 810 398 c 257
 820 378 l 257
 773 175 549 -35 298 -35 c 256
 119 -35 33 55 80 260 c 0
 119 431 257 555 556 595 c 256
 746 620 874 675 893 758 c 257
 908 738 l 257
 889 655 734 595 558 570 c 256
 269 528 146 413 111 263 c 0
803 368 m 265
 898 778 l 258
 935 938 897 1060 682 1060 c 256
 453 1060 325 948 258 742 c 0
 256 736 253 733 246 733 c 2
 237 733 l 2
 230 733 228 736 230 742 c 0
 305 965 442 1085 688 1085 c 256
 917 1085 967 951 926 773 c 258
 833 368 l 257
 803 368 l 265
1573 329 m 4
 1505 165 1380 -35 1087 -35 c 260
 858 -35 750 138 822 448 c 262
 858 603 l 262
 927 903 1126 1085 1353 1085 c 260
 1610 1085 1671 889 1645 674 c 260
 1637 603 1639 618 1620 534 c 4
 1619 529 1615 526 1608 526 c 6
 854 526 l 261
 861 555 l 261
 1596 555 l 261
 1669 892 1571 1060 1348 1060 c 260
 1131 1060 950 873 888 603 c 262
 852 448 l 262
 790 178 875 -10 1092 -10 c 260
 1344 -10 1474 154 1547 332 c 4
 1549 336 1552 338 1559 338 c 6
 1567 338 l 6
 1574 338 1575 335 1573 329 c 4
EndSplineSet
EndChar

StartChar: paragraph
Encoding: 182 182 380
Width: 1070
VWidth: 1920
Flags: HMW
LayerCount: 2
Fore
SplineSet
1080 1365 m 257
 686 -344 l 258
 683 -357 678 -364 667 -364 c 258
 665 -364 l 258
 654 -364 652 -357 656 -344 c 258
 1050 1365 l 257
 800 1365 l 257
 406 -344 l 258
 402 -357 398 -364 387 -364 c 258
 385 -364 l 258
 374 -364 373 -357 376 -344 c 258
 594 600 l 257
 514 600 l 258
 307 600 141 698 203 968 c 258
 218 1032 l 258
 280 1302 491 1400 698 1400 c 258
 1222 1400 l 258
 1235 1400 1241 1394 1238 1383 c 258
 1238 1382 l 258
 1235 1371 1227 1365 1214 1365 c 258
 1080 1365 l 257
EndSplineSet
EndChar

StartChar: guilsinglleft
Encoding: 8249 8249 381
Width: 630
Flags: HMW
LayerCount: 2
Fore
SplineSet
390 216 m 6
 174 539 l 6
 170 545 165 553 167 560 c 6
 168 561 l 6
 170 568 177 575 184 581 c 6
 542 874 l 6
 549 880 557 877 555 869 c 6
 554 868 l 6
 552 859 542 850 535 844 c 6
 191 557 l 261
 398 251 l 6
 402 245 409 233 407 223 c 6
 407 222 l 6
 405 215 394 210 390 216 c 6
EndSplineSet
EndChar

StartChar: guilsinglright
Encoding: 8250 8250 382
Width: 630
Flags: HW
LayerCount: 2
Fore
SplineSet
252 874 m 6
 467 551 l 6
 471 545 476 537 474 530 c 6
 474 529 l 6
 472 522 465 515 458 509 c 6
 100 216 l 6
 93 210 85 213 87 221 c 6
 87 222 l 6
 89 231 100 240 107 246 c 6
 451 533 l 261
 244 839 l 6
 240 845 232 857 234 867 c 6
 234 868 l 6
 236 875 248 880 252 874 c 6
EndSplineSet
EndChar

StartChar: mu
Encoding: 181 181 385
Width: 1110
VWidth: 1920
Flags: HW
LayerCount: 2
Fore
SplineSet
339 1052 m 2
 343 1052 l 2
 350 1052 355 1047 353 1040 c 2
 32 -350 l 2
 30 -359 22 -365 15 -365 c 2
 13 -365 l 2
 6 -365 0 -359 2 -350 c 2
 323 1040 l 2
 325 1047 332 1052 339 1052 c 2
806 -3 m 258
 805 -3 l 258
 795 -3 794 3 797 16 c 258
 881 383 l 257
 884 410 l 257
 1028 1034 l 258
 1031 1047 1035 1053 1046 1053 c 258
 1048 1053 l 258
 1059 1053 1061 1047 1058 1034 c 258
 823 16 l 258
 820 3 815 -3 806 -3 c 258
908 427 m 257
 855 197 636 -35 402 -35 c 256
 186 -35 116 87 169 317 c 258
 335 1034 l 258
 336 1037 343 1043 344 1043 c 258
 346 1043 l 258
 352 1043 353 1038 352 1034 c 258
 186 317 l 258
 138 107 210 -10 408 -10 c 256
 637 -10 840 217 888 427 c 257
 908 427 l 257
EndSplineSet
EndChar

StartChar: Eth
Encoding: 208 208 387
Width: 1229
VWidth: 1920
Flags: HW
LayerCount: 2
Fore
SplineSet
46 711 m 14
 46 714 l 22
 46 725 54 730 66 730 c 14
 657 730 l 22
 668 730 676 724 676 714 c 14
 676 711 l 22
 676 701 668 695 657 695 c 14
 66 695 l 22
 54 695 46 700 46 711 c 14
EndSplineSet
Refer: 15 68 N 1 0 0 1 0 0 2
EndChar

StartChar: Dcroat
Encoding: 272 272 388
Width: 1229
VWidth: 1920
Flags: HW
LayerCount: 2
Fore
SplineSet
46 711 m 14
 46 714 l 22
 46 725 54 730 66 730 c 14
 657 730 l 22
 668 730 676 724 676 714 c 14
 676 711 l 22
 676 701 668 695 657 695 c 14
 66 695 l 22
 54 695 46 700 46 711 c 14
EndSplineSet
Refer: 15 68 N 1 0 0 1 0 0 2
EndChar

StartChar: thorn
Encoding: 254 254 389
Width: 1135
VWidth: 1920
Flags: HW
LayerCount: 2
Fore
SplineSet
349 1453 m 258
 351 1453 l 258
 362 1453 364 1447 361 1434 c 258
 -49 -344 l 258
 -52 -357 -57 -363 -68 -363 c 262
 -70 -363 l 262
 -81 -363 -82 -357 -79 -344 c 258
 331 1434 l 258
 334 1447 338 1453 349 1453 c 258
161 633 m 257
 223 903 491 1085 708 1085 c 256
 914 1085 1115 943 1037 603 c 258
 1001 447 l 258
 927 127 665 -35 459 -35 c 256
 215 -35 51 157 111 417 c 257
 131 437 l 257
 76 197 223 -5 466 -5 c 256
 654 -5 902 147 971 447 c 258
 1007 603 l 258
 1081 923 890 1055 702 1055 c 256
 477 1055 227 853 172 613 c 257
 161 633 l 257
EndSplineSet
EndChar

StartChar: Thorn
Encoding: 222 222 390
Width: 1280
VWidth: 1920
Flags: HW
LayerCount: 2
Fore
SplineSet
834 1100 m 258
 1121 1100 1218 1052 1156 782 c 258
 1141 718 l 258
 1079 448 959 400 672 400 c 258
 252 400 l 257
 164 16 l 258
 161 3 154 -3 145 -3 c 262
 143 -3 l 262
 134 -3 131 3 134 16 c 258
 450 1384 l 258
 453 1397 459 1403 468 1403 c 258
 470 1403 l 258
 479 1403 483 1397 480 1384 c 258
 414 1100 l 257
 834 1100 l 258
259 430 m 257
 679 430 l 258
 966 430 1058 488 1111 718 c 258
 1126 782 l 258
 1181 1022 1114 1070 827 1070 c 258
 407 1070 l 257
 259 430 l 257
EndSplineSet
EndChar

StartChar: divide
Encoding: 247 247 391
Width: 1169
VWidth: 2048
Flags: HW
LayerCount: 2
Fore
SplineSet
67 690 m 258
 67 695 l 258
 67 705 73 710 85 710 c 258
 1055 710 l 258
 1067 710 1073 705 1073 695 c 258
 1073 690 l 258
 1073 680 1067 675 1055 675 c 258
 85 675 l 258
 73 675 67 680 67 690 c 258
EndSplineSet
Refer: 1 46 S 1 0 0 1 466 990 2
Refer: 1 46 S 1 0 0 1 306 180 2
EndChar

StartChar: multiply
Encoding: 215 215 392
Width: 1060
VWidth: 1920
Flags: HW
LayerCount: 2
Fore
SplineSet
833 377 m 2
 832 376 l 2
 826 371 819 374 815 379 c 6
 315 1030 l 2
 311 1035 309 1043 315 1048 c 2
 316 1049 l 2
 322 1054 329 1050 333 1045 c 2
 834 394 l 6
 838 389 839 382 833 377 c 2
161 376 m 2
 160 377 l 2
 157 381 161 389 167 394 c 2
 969 1046 l 2
 975 1051 983 1054 987 1049 c 2
 988 1048 l 2
 992 1043 987 1036 981 1031 c 2
 179 379 l 2
 173 374 165 371 161 376 c 2
EndSplineSet
EndChar

StartChar: Oslash
Encoding: 216 216 393
Width: 1317
VWidth: 1920
Flags: HW
LayerCount: 2
Fore
SplineSet
1120 1484 m 2
 1122 1483 l 2
 1129.8 1479.1 1129 1466 1125 1460 c 2
 248 -58 l 2
 243.966897851 -64.9808997289 233.538461538 -67.6923076923 228 -64 c 2
 225 -62 l 2
 218.824444111 -57.8829627404 217.968302673 -48.9818320152 222 -42 c 6
 1098 1475 l 2
 1102 1481 1112.59960938 1487.70019531 1120 1484 c 2
EndSplineSet
Refer: 26 79 N 1 0 0 1 0 0 2
EndChar

StartChar: oslash
Encoding: 248 248 394
Width: 1071
VWidth: 1920
Flags: HW
LayerCount: 2
Fore
SplineSet
904 1171 m 258
 907 1169 l 258
 913.498046875 1164.66796875 915 1157 910 1149 c 258
 200 -81 l 258
 195.286613783 -89.1654437283 185 -91 178 -87 c 262
 175 -85 l 262
 168.538085938 -80.6923828125 168 -73 173 -65 c 258
 883 1165 l 258
 887.713386217 1173.16544373 897 1175 904 1171 c 258
EndSplineSet
Refer: 52 111 N 1 0 0 1 0 0 2
EndChar

StartChar: germandbls
Encoding: 223 223 396
Width: 1210
VWidth: 1920
Flags: HW
LayerCount: 2
Fore
SplineSet
374 1188 m 258
 414 1362 510 1487 740 1487 c 256
 973 1487 1069 1372 1030 1205 c 256
 985 1008 751 948 723 828 c 256
 661 559 1109 593 1042 302 c 256
 993 90 845 -33 491 -35 c 256
 476 -35 467 -33 470 -20 c 262
 471 -19 l 262
 474 -6 483 -4 498 -4 c 256
 828 -1 969 114 1012 302 c 256
 1075 575 626 537 693 828 c 256
 726 970 958 1025 1000 1205 c 256
 1033 1346 955 1457 733 1457 c 256
 531 1457 444 1341 409 1188 c 258
 139 16 l 258
 136 3 128 -3 117 -3 c 258
 116 -3 l 258
 105 -3 101 3 104 16 c 258
 374 1188 l 258
EndSplineSet
EndChar

StartChar: eth
Encoding: 240 240 397
Width: 1104
VWidth: 1920
Flags: HW
LayerCount: 2
Fore
SplineSet
328 1174 m 258
 328 1180 l 258
 326 1189 333 1196 345 1201 c 258
 928 1445 l 258
 939 1450 947 1450 949 1442 c 258
 949 1440 l 258
 950 1431 943 1420 932 1415 c 258
 350 1170 l 258
 338 1165 330 1165 328 1174 c 258
593 1055 m 256
 373 1055 232 830 171 567 c 258
 146 457 l 258
 81 177 170 -5 429 -5 c 256
 746 -5 847 252 898 472 c 258
 950 698 l 258
 1016 984 771 1296 459 1448 c 256
 445 1455 442 1461 449 1471 c 258
 450 1473 l 258
 458 1483 462 1485 479 1477 c 256
 817 1333 1065 999 978 623 c 258
 958 537 l 258
 889 237 779 -35 422 -35 c 256
 130 -35 42 179 106 457 c 258
 131 567 l 258
 194 841 342 1085 599 1085 c 256
 836 1085 1007 856 962 662 c 257
 898 472 l 257
 928 602 l 258
 986 855 833 1055 593 1055 c 256
EndSplineSet
EndChar

StartChar: dcroat
Encoding: 273 273 398
Width: 1055
VWidth: 1920
Flags: HW
LayerCount: 2
Fore
SplineSet
697 1255 m 14
 697 1270 l 22
 697 1277 700 1280 707 1280 c 14
 1177 1280 l 22
 1184 1280 1187 1277 1187 1270 c 14
 1187 1255 l 22
 1187 1248 1184 1245 1177 1245 c 14
 707 1245 l 22
 700 1245 697 1248 697 1255 c 14
EndSplineSet
Refer: 41 100 N 1 0 0 1 0 0 2
EndChar

StartChar: Hbar
Encoding: 294 294 399
Width: 1227
VWidth: 1920
Flags: HW
LayerCount: 2
Fore
SplineSet
67 1060 m 14
 67 1075 l 22
 67 1082 70 1085 77 1085 c 14
 1437 1085 l 22
 1444 1085 1447 1082 1447 1075 c 14
 1447 1060 l 22
 1447 1053 1444 1050 1437 1050 c 14
 77 1050 l 22
 70 1050 67 1053 67 1060 c 14
EndSplineSet
Refer: 19 72 N 1 0 0 1 0 0 2
EndChar

StartChar: hbar
Encoding: 295 295 400
Width: 953
VWidth: 1920
Flags: HW
LayerCount: 2
Fore
SplineSet
169 1305 m 14
 169 1320 l 22
 169 1327 172 1330 179 1330 c 14
 649 1330 l 22
 656 1330 659 1327 659 1320 c 14
 659 1305 l 22
 659 1298 656 1295 649 1295 c 14
 179 1295 l 22
 172 1295 169 1298 169 1305 c 14
EndSplineSet
Refer: 45 104 N 1 0 0 1 0 0 2
EndChar

StartChar: Lslash
Encoding: 321 321 405
Width: 1011
VWidth: 1920
Flags: HW
LayerCount: 2
Fore
SplineSet
588 1038 m 6
 590 1034 l 6
 593 1028 589 1024 582 1020 c 6
 63 755 l 6
 56 751 53 753 50 759 c 6
 48 763 l 6
 45 769 48 773 55 777 c 6
 575 1042 l 6
 582 1046 585 1044 588 1038 c 6
EndSplineSet
Refer: 23 76 N 1 0 0 1 0 0 2
EndChar

StartChar: lslash
Encoding: 322 322 406
Width: 280
VWidth: 1920
Flags: HW
LayerCount: 2
Fore
SplineSet
524 1038 m 6
 526 1034 l 6
 529 1028 525 1024 518 1020 c 6
 -1 755 l 6
 -8 751 -11 753 -14 759 c 6
 -16 763 l 6
 -19 769 -16 773 -9 777 c 6
 511 1042 l 6
 518 1046 521 1044 524 1038 c 6
EndSplineSet
Refer: 49 108 N 1 0 0 1 0 0 2
EndChar

StartChar: eng
Encoding: 331 331 408
Width: 1110
VWidth: 1920
Flags: HW
LayerCount: 2
Fore
SplineSet
336 1050 m 2
 343 1050 l 2
 350 1050 352 1047 350 1040 c 2
 264 667 l 257
 263 640 l 257
 117 10 l 2
 115 3 112 0 105 0 c 2
 95 0 l 2
 88 0 85 3 87 10 c 2
 325 1040 l 2
 327 1047 329 1050 336 1050 c 2
765 -86 m 2
 717 -293 657 -378 375 -351 c 0
 367 -350 365 -347 367 -340 c 2
 369 -330 l 2
 371 -323 374 -320 381 -321 c 0
 627 -348 690 -285 735 -88 c 2
 931 763 l 2
 973 943 912 1060 725 1060 c 0
 528 1060 307 833 259 623 c 1
 239 623 l 1
 290 843 503 1085 730 1085 c 0
 937 1085 1007 963 961 763 c 2
 765 -86 l 2
EndSplineSet
EndChar

StartChar: Eng
Encoding: 330 330 409
Width: 1380
VWidth: 1920
Flags: HW
LayerCount: 2
Fore
SplineSet
1333 1400 m 2
 1343 1400 l 2
 1350 1400 1353 1397 1351 1390 c 2
 1010 -86 l 2
 962 -293 902 -378 620 -351 c 0
 612 -350 610 -347 612 -340 c 2
 614 -330 l 2
 616 -323 619 -320 626 -321 c 0
 872 -348 935 -285 980 -88 c 2
 998 -10 l 1
 455 1363 l 1
 142 10 l 2
 140 3 137 0 130 0 c 2
 120 0 l 2
 113 0 110 3 112 10 c 2
 431 1390 l 2
 433 1397 436 1400 443 1400 c 2
 463 1400 l 2
 471 1400 474 1398 478 1390 c 2
 1011 47 l 25
 1321 1390 l 2
 1323 1397 1326 1400 1333 1400 c 2
EndSplineSet
EndChar

StartChar: oe
Encoding: 339 339 410
Width: 1880
VWidth: 1920
Flags: HW
LayerCount: 2
Fore
SplineSet
118 468 m 258
 145 583 l 258
 212 873 388 1085 685 1085 c 256
 982 1085 1062 873 995 583 c 258
 968 468 l 258
 901 178 724 -35 427 -35 c 256
 130 -35 51 178 118 468 c 258
143 468 m 258
 81 198 156 -10 433 -10 c 256
 710 -10 881 198 943 468 c 258
 970 583 l 258
 1032 853 957 1060 680 1060 c 256
 403 1060 232 853 170 583 c 258
 143 468 l 258
1690 329 m 0
 1622 165 1497 -35 1204 -35 c 256
 975 -35 867 138 939 448 c 258
 975 603 l 258
 1044 903 1243 1085 1470 1085 c 256
 1727 1085 1788 889 1762 674 c 256
 1754 603 1751 594 1740 546 c 0
 1737 532 1725 526 1713 526 c 2
 971 526 l 257
 978 555 l 257
 1713 555 l 257
 1786 892 1688 1060 1465 1060 c 256
 1248 1060 1067 873 1005 603 c 258
 969 448 l 258
 907 178 992 -10 1209 -10 c 256
 1461 -10 1591 154 1664 332 c 0
 1666 336 1669 346 1680 346 c 2
 1681 346 l 2
 1694 346 1692 335 1690 329 c 0
EndSplineSet
EndChar

StartChar: OE
Encoding: 338 338 411
Width: 2130
VWidth: 1920
Flags: HW
LayerCount: 2
Fore
SplineSet
878 1400 m 258
 1298 1400 l 258
 1305 1400 1299 1397 1297 1390 c 262
 978 10 l 262
 976 3 982 0 975 0 c 258
 555 0 l 258
 241 0 115 241 202 617 c 258
 241 782 l 258
 328 1158 524 1400 878 1400 c 258
871 1370 m 258
 547 1370 356 1150 271 782 c 258
 232 617 l 258
 149 259 268 30 562 30 c 258
 962 30 l 257
 1271 1370 l 257
 871 1370 l 258
EndSplineSet
Refer: 16 69 N 1 0 0 1 850 0 2
EndChar

StartChar: Tbar
Encoding: 358 358 413
Width: 1071
VWidth: 1920
Flags: HW
LayerCount: 2
Fore
SplineSet
218 746 m 262
 218 748 l 262
 218 758 224 765 236 765 c 262
 976 765 l 262
 988 765 994 758 994 748 c 262
 994 746 l 262
 994 736 988 730 976 730 c 262
 236 730 l 262
 224 730 218 736 218 746 c 262
EndSplineSet
Refer: 31 84 N 1 0 0 1 0 0 2
EndChar

StartChar: tbar
Encoding: 359 359 414
Width: 604
VWidth: 1920
Flags: HW
LayerCount: 2
Fore
SplineSet
60 676 m 262
 60 678 l 262
 60 688 66 695 78 695 c 262
 588 695 l 262
 600 695 606 688 606 678 c 262
 606 676 l 262
 606 666 600 660 588 660 c 262
 78 660 l 262
 66 660 60 666 60 676 c 262
EndSplineSet
Refer: 57 116 N 1 0 0 1 0 0 2
EndChar

StartChar: florin
Encoding: 402 402 415
Width: 502
VWidth: 1920
Flags: HW
LayerCount: 2
Fore
SplineSet
522 1025 m 258
 199 1025 l 258
 186 1025 180 1029 180 1037 c 258
 180 1038 l 258
 180 1046 186 1050 199 1050 c 258
 522 1050 l 258
 535 1050 541 1046 541 1038 c 258
 541 1037 l 258
 541 1028 535 1025 522 1025 c 258
320 1135 m 2
 371 1347 444 1447 563 1447 c 0
 732 1447 672.169546981 1276.00345638 623 1193 c 0
 615.038751609 1179.56056087 606 1173 598 1173 c 2
 596 1173 l 2
 589 1173 579.850786885 1180.71632173 587 1193 c 0
 636.286748122 1277.68380326 685 1417 556 1417 c 0
 458 1417 392 1311 350 1136 c 2
 328 1044 l 2
 326 1037 318 1034 311 1034 c 2
 306 1034 l 2
 299 1034 296 1037 298 1044 c 2
 320 1135 l 2
73 -59 m 2
 24 -271 -19 -371 -128 -371 c 0
 -287 -371 -202.335999047 -215.015994282 -167 -117 c 0
 -162.874107044 -105.555481342 -156 -97 -149 -97 c 2
 -148 -97 l 2
 -138 -97 -135.086525322 -106.526952881 -139 -117 c 0
 -176.006221147 -216.034216309 -241 -341 -121 -341 c 0
 -33 -341 2 -235 43 -60 c 2
 298 1038 l 2
 300 1045 302 1048 309 1048 c 2
 319 1048 l 2
 326 1048 329 1047 327 1040 c 2
 73 -59 l 2
EndSplineSet
EndChar

StartChar: uni0394
Encoding: 916 916 430
Width: 1280
VWidth: 1920
Flags: HW
LayerCount: 2
Fore
SplineSet
-6 0 m 258
 -22 0 -26 8 -18 22 c 258
 810 1384 l 258
 817 1395 822 1403 834 1403 c 258
 835 1403 l 258
 847 1403 849 1395 850 1384 c 258
 1058 22 l 258
 1060 8 1052 0 1036 0 c 258
 -6 0 l 258
27 30 m 257
 1016 30 l 257
 823 1355 l 257
 27 30 l 257
EndSplineSet
EndChar

StartChar: uni03A9
Encoding: 937 937 431
Width: 1490
VWidth: 1920
Flags: HW
LayerCount: 2
Fore
SplineSet
731 54 m 256
 980 137 1348 468 1413 748 c 258
 1423 793 l 258
 1503 1141 1313 1405 949 1405 c 256
 585 1405 273 1141 193 793 c 258
 183 748 l 258
 118 467 333 135 546 53 c 256
 565 45 570 38 567 23 c 258
 566 19 l 258
 563 8 552 0 539 0 c 258
 1 0 l 258
 -12 0 -18 5 -15 16 c 258
 -15 18 l 258
 -12 29 -4 35 9 35 c 258
 498 35 l 257
 291 142 85 453 153 748 c 258
 161 783 l 258
 250 1169 574 1435 956 1435 c 256
 1338 1435 1540 1169 1451 783 c 258
 1443 748 l 258
 1375 453 1022 142 766 35 c 257
 1257 35 l 258
 1270 35 1277 29 1274 18 c 258
 1273 15 l 258
 1270 4 1262 0 1249 0 c 258
 711 0 l 258
 698 0 691 9 694 20 c 258
 694 23 l 258
 697 38 705 45 731 54 c 256
EndSplineSet
EndChar

StartChar: pi
Encoding: 960 960 432
Width: 1255
VWidth: 1920
Flags: HW
LayerCount: 2
Fore
SplineSet
356 1030 m 258
 122 16 l 258
 119 3 114 -3 103 -3 c 258
 101 -3 l 258
 90 -3 89 3 92 16 c 258
 326 1030 l 258
 328 1037 331 1040 338 1040 c 258
 348 1040 l 258
 355 1040 358 1037 356 1030 c 258
1103 16 m 258
 1102 14 l 258
 1099 3 1092 -1 1079 -2 c 256
 789 -37 830 44 878 252 c 258
 1056 1024 l 258
 1059 1037 1067 1044 1078 1044 c 258
 1079 1044 l 258
 1090 1044 1094 1037 1091 1024 c 258
 913 252 l 258
 868 55 835 -7 1087 29 c 256
 1099 30 1106 27 1103 16 c 258
155 1030 m 258
 155 1035 l 258
 155 1046 161 1050 174 1050 c 258
 1262 1050 l 258
 1275 1050 1281 1046 1281 1035 c 258
 1281 1030 l 258
 1281 1019 1275 1015 1262 1015 c 258
 174 1015 l 258
 161 1015 155 1019 155 1030 c 258
EndSplineSet
EndChar

StartChar: minute
Encoding: 8242 8242 433
Width: 470
VWidth: 1920
Flags: HW
LayerCount: 2
Fore
SplineSet
154 930 m 6
 152 930 l 6
 145 930 144 939 151 950 c 6
 417 1396 l 6
 429 1417 440 1429 457 1429 c 6
 458 1429 l 6
 472 1429 478 1413 468 1398 c 6
 167 940 l 6
 164 935 161 930 154 930 c 6
EndSplineSet
EndChar

StartChar: Euro
Encoding: 8364 8364 435
Width: 1405
VWidth: 1920
Flags: HW
LayerCount: 2
Fore
SplineSet
16 560 m 262
 16 566 l 262
 16 576 22 580 34 580 c 262
 795 580 l 262
 807 580 813 576 813 566 c 262
 813 560 l 262
 813 550 807 545 795 545 c 262
 34 545 l 262
 22 545 16 550 16 560 c 262
78 830 m 258
 78 836 l 258
 78 846 84 850 96 850 c 258
 857 850 l 258
 869 850 875 846 875 836 c 258
 875 830 l 258
 875 820 869 815 857 815 c 258
 96 815 l 258
 84 815 78 820 78 830 c 258
1148 342 m 256
 1072 124 904 -35 587 -35 c 256
 200 -35 115 238 203 618 c 258
 241 783 l 258
 329 1163 539 1435 926 1435 c 256
 1258 1435 1313 1288 1292 1140 c 256
 1290 1126 1281 1117 1270 1117 c 258
 1265 1117 l 258
 1253 1117 1247 1125 1250 1139 c 256
 1274 1261 1244 1405 919 1405 c 256
 552 1405 351 1133 273 793 c 258
 230 608 l 258
 147 248 237 -5 594 -5 c 256
 902 -5 1052 152 1107 342 c 256
 1111 355 1120 364 1132 364 c 258
 1136 364 l 258
 1148 364 1153 355 1148 342 c 256
EndSplineSet
EndChar

StartChar: uni2116
Encoding: 8470 8470 436
Width: 2180
VWidth: 1920
Flags: HW
LayerCount: 2
Fore
SplineSet
1246 17 m 14
 1246 18 l 22
 1246 29 1253 35 1264 35 c 14
 1846 35 l 22
 1857 35 1862 27 1862 18 c 14
 1862 16 l 22
 1862 7 1857 0 1846 0 c 14
 1264 0 l 22
 1253 0 1246 6 1246 17 c 14
EndSplineSet
Refer: 132 8304 S 1 0 0 1 1170 -295 2
Refer: 25 78 N 1 0 0 1 0 0 2
EndChar

StartChar: trademark
Encoding: 8482 8482 437
Width: 1722
VWidth: 1920
Flags: HW
LayerCount: 2
Fore
SplineSet
293 1400 m 258
 927 1400 l 258
 935 1400 940 1399 938 1392 c 258
 938 1391 l 258
 936 1384 931 1382 923 1382 c 258
 615 1382 l 257
 428 572 l 258
 426 562 423 557 417 557 c 258
 415 557 l 258
 409 557 408 562 410 572 c 258
 597 1382 l 257
 289 1382 l 258
 281 1382 276 1383 278 1390 c 258
 278 1391 l 258
 280 1398 285 1400 293 1400 c 258
1107 1364 m 257
 924 572 l 258
 922 562 920 557 913 557 c 258
 912 557 l 258
 904 557 904 562 906 572 c 258
 1094 1385 l 258
 1096 1395 1101 1401 1109 1401 c 258
 1110 1401 l 258
 1120 1401 1121 1395 1123 1386 c 258
 1269 583 l 257
 1755 1387 l 258
 1761 1396 1766 1401 1774 1401 c 258
 1776 1401 l 258
 1783 1401 1787 1398 1784 1385 c 258
 1596 572 l 258
 1594 562 1593 557 1585 557 c 258
 1584 557 l 258
 1576 557 1576 562 1578 572 c 258
 1761 1364 l 257
 1282 570 l 258
 1276 562 1274 560 1268 560 c 258
 1258 560 l 258
 1252 560 1251 562 1250 570 c 258
 1107 1364 l 257
EndSplineSet
EndChar

StartChar: partialdiff
Encoding: 8706 8706 438
Width: 1104
VWidth: 1920
Flags: HW
LayerCount: 2
Fore
SplineSet
606 855 m 256
 376 855 192 700 138 467 c 258
 110 347 l 258
 62 137 200 -5 479 -5 c 256
 786 -5 949 302 988 472 c 258
 1029 648 l 258
 1095 934 862 1269 451 1450 c 0
 442 1454 440 1463 445 1472 c 2
 447 1475 l 2
 451 1482 462 1485 474 1480 c 0
 815 1337 1145 999 1058 623 c 258
 1038 537 l 258
 969 237 789 -35 472 -35 c 256
 180 -35 25 109 82 357 c 258
 108 467 l 258
 164 711 356 885 613 885 c 256
 850 885 1054 716 1016 552 c 257
 965 372 l 257
 995 502 l 258
 1037 685 866 855 606 855 c 256
EndSplineSet
EndChar

StartChar: summation
Encoding: 8721 8721 439
Width: 1170
VWidth: 1920
Flags: HW
LayerCount: 2
Fore
SplineSet
888 496 m 258
 -64 -330 l 257
 903 -330 l 258
 918 -330 925 -333 922 -344 c 262
 921 -345 l 262
 918 -356 911 -360 896 -360 c 258
 -111 -360 l 258
 -127 -360 -126 -349 -114 -337 c 258
 872 520 l 257
 280 1381 l 258
 274 1393 281 1400 295 1400 c 258
 1302 1400 l 258
 1318 1400 1324 1397 1321 1386 c 258
 1321 1385 l 258
 1318 1374 1311 1370 1295 1370 c 258
 328 1370 l 257
 899 544 l 258
 909 529 905 511 888 496 c 258
EndSplineSet
EndChar

StartChar: minus
Encoding: 8722 8722 440
Width: 1170
VWidth: 0
Flags: HW
LayerCount: 2
Fore
SplineSet
127.3 530.4 m 262
 127.3 534.6 l 262
 127.3 544.3 133 550 145.4 550 c 262
 1024.6 550 l 262
 1037 550 1042.7 544.3 1042.7 534.6 c 262
 1042.7 530.4 l 262
 1042.7 520.7 1037 515 1024.6 515 c 262
 145.4 515 l 262
 133 515 127.3 520.7 127.3 530.4 c 262
EndSplineSet
EndChar

StartChar: integral
Encoding: 8747 8747 441
Width: 445
VWidth: 1920
Flags: HW
LayerCount: 2
Fore
SplineSet
95 -98 m 258
 47 -305 -11 -377 -286 -351 c 256
 -300 -350 -306 -347 -303 -336 c 258
 -302 -334 l 258
 -299 -323 -293 -320 -280 -321 c 256
 -17 -358 27 -265 70 -78 c 258
 362 1188 l 258
 410 1395 458 1467 733 1441 c 256
 748 1440 753 1437 750 1426 c 258
 747 1414 l 258
 744 1403 739 1402 720 1402 c 256
 456 1425 431 1353 388 1168 c 258
 95 -98 l 258
EndSplineSet
EndChar

StartChar: radical
Encoding: 8730 8730 443
Width: 1055
VWidth: 1920
Flags: HMW
LayerCount: 2
Fore
SplineSet
416 1050 m 258
 428 1050 433 1043 434 1033 c 258
 487 4 l 257
 1186 1581 l 258
 1192 1597 1199 1603 1210 1603 c 258
 1221 1603 l 258
 1232 1603 1238 1597 1231 1581 c 258
 462 -134 l 258
 456 -145 450 -145 449 -134 c 258
 394 1020 l 257
 159 1020 l 258
 146 1020 141 1023 144 1034 c 258
 144 1035 l 258
 147 1046 153 1050 166 1050 c 258
 416 1050 l 258
EndSplineSet
EndChar

StartChar: infinity
Encoding: 8734 8734 444
Width: 1450
Flags: HMW
LayerCount: 2
Fore
SplineSet
331 301 m 0
 131 301 53 471 98 665 c 0
 143 859 299 1025 499 1025 c 0
 653 1025 715 855 742 695 c 1
 843 855 983 1025 1137 1025 c 0
 1337 1025 1415 859 1370 665 c 0
 1325 471 1169 301 969 301 c 0
 815 301 735 471 728 631 c 1
 625 471 485 301 331 301 c 0
338 331 m 4
 496 331 637 541 720 665 c 1
 698 787 650 995 492 995 c 4
 312 995 167 835 128 665 c 0
 92 507 158 331 338 331 c 4
976 331 m 4
 1166 331 1304 507 1340 665 c 0
 1377 825 1320 995 1130 995 c 4
 972 995 828 787 750 665 c 1
 752 543 818 331 976 331 c 4
EndSplineSet
EndChar

StartChar: product
Encoding: 8719 8719 445
Width: 1380
VWidth: 1920
Flags: HW
LayerCount: 2
Fore
SplineSet
1362 1400 m 258
 1377 1400 1382 1393 1379 1381 c 258
 1064 16 l 258
 1061 4 1057 -3 1045 -3 c 262
 1043 -3 l 262
 1031 -3 1031 4 1034 16 c 258
 1346 1370 l 257
 426 1370 l 257
 114 16 l 258
 111 4 107 -3 95 -3 c 258
 93 -3 l 258
 81 -3 81 4 84 16 c 258
 399 1381 l 258
 402 1393 409 1400 424 1400 c 258
 1362 1400 l 258
EndSplineSet
EndChar

StartChar: uni2219
Encoding: 8729 8729 446
Width: 540
Flags: HW
LayerCount: 2
Fore
SplineSet
159 675 m 4
 159 763 220 825 308 825 c 4
 396 825 457 763 457 675 c 4
 457 587 401 525 313 525 c 4
 225 525 159 587 159 675 c 4
EndSplineSet
EndChar

StartChar: approxequal
Encoding: 8776 8776 447
Width: 1180
VWidth: 1920
Flags: HW
LayerCount: 2
Fore
SplineSet
466 799 m 256
 346 799 225 693 195 580 c 256
 191 570 186 565 176 565 c 258
 175 565 l 258
 164 565 160 570 165 582 c 256
 201 715 332 829 473 829 c 256
 652 829 639 572 791 572 c 256
 911 572 1030 668 1062 790 c 256
 1065 800 1070 806 1081 806 c 258
 1082 806 l 258
 1093 806 1095 801 1092 789 c 256
 1055 653 924 542 784 542 c 256
 605 542 638 799 466 799 c 256
381 429 m 256
 261 429 139 323 109 210 c 256
 106 200 101 195 91 195 c 258
 90 195 l 258
 79 195 77 200 80 212 c 256
 116 345 247 459 388 459 c 256
 567 459 554 202 706 202 c 256
 826 202 945 298 977 420 c 256
 980 430 986 436 997 436 c 258
 998 436 l 258
 1009 436 1010 431 1007 419 c 256
 970 283 839 172 699 172 c 256
 520 172 553 429 381 429 c 256
EndSplineSet
EndChar

StartChar: notequal
Encoding: 8800 8800 448
Width: 1180
VWidth: 1920
Flags: HW
LayerCount: 2
Fore
SplineSet
1110 960 m 6
 1111 958 l 6
 1115 953 1114 949 1108 944 c 6
 75 40 l 6
 69 35 65 35 61 40 c 6
 60 42 l 6
 56 47 57 51 63 56 c 6
 1096 960 l 6
 1102 965 1106 965 1110 960 c 6
EndSplineSet
Refer: 83 61 N 1 0 0 1 0 0 2
EndChar

StartChar: lessequal
Encoding: 8804 8804 449
Width: 1010
VWidth: 1920
Flags: HW
LayerCount: 2
Fore
SplineSet
-7.7001953125 15.400390625 m 262
 -7.7001953125 19.599609375 l 262
 -7.7001953125 29.2998046875 -2 35 10.400390625 35 c 262
 769.599609375 35 l 262
 782 35 787.700195312 29.2998046875 787.700195312 19.599609375 c 262
 787.700195312 15.400390625 l 262
 787.700195312 5.7001953125 782 0 769.599609375 0 c 262
 10.400390625 0 l 262
 -2 0 -7.7001953125 5.7001953125 -7.7001953125 15.400390625 c 262
EndSplineSet
Refer: 84 60 N 1 0 0 1 0 150 2
EndChar

StartChar: greaterequal
Encoding: 8805 8805 450
Width: 1010
VWidth: 1920
Flags: HW
LayerCount: 2
Fore
SplineSet
-8.7001953125 15.400390625 m 262
 -8.7001953125 19.599609375 l 262
 -8.7001953125 29.2998046875 -3 35 9.400390625 35 c 262
 768.599609375 35 l 262
 781 35 786.700195312 29.2998046875 786.700195312 19.599609375 c 262
 786.700195312 15.400390625 l 262
 786.700195312 5.7001953125 781 0 768.599609375 0 c 262
 9.400390625 0 l 262
 -3 0 -8.7001953125 5.7001953125 -8.7001953125 15.400390625 c 262
EndSplineSet
Refer: 85 62 N 1 0 0 1 0 150 2
EndChar

StartChar: lozenge
Encoding: 9674 9674 451
Width: 950
Flags: HW
LayerCount: 2
Fore
SplineSet
370 40 m 2
 123 702 l 2
 120 710 121 714 128 722 c 2
 680 1382 l 2
 688 1391 688 1392 692 1382 c 2
 916 722 l 2
 918 714 917 710 911 702 c 2
 382 40 l 2
 375 30 374 31 370 40 c 2
390 124 m 1
 877 712 l 5
 661 1300 l 1
 161 712 l 1
 390 124 l 1
EndSplineSet
EndChar

StartChar: uniF8EA
Encoding: 63722 63722 452
Width: 1088
VWidth: 1920
Flags: HW
LayerCount: 2
Fore
SplineSet
281 1400 m 6
 667 1400 l 6
 669 1400 669 1398 669 1396 c 6
 669 1393 l 6
 669 1391 667 1389 665 1389 c 6
 477 1389 l 261
 364 900 l 6
 364 898 362 896 360 896 c 6
 356 896 l 6
 354 896 354 898 354 900 c 6
 467 1389 l 261
 279 1389 l 6
 277 1389 277 1391 277 1393 c 6
 277 1396 l 6
 277 1398 279 1400 281 1400 c 6
772 1378 m 261
 662 900 l 6
 662 898 659 896 657 896 c 6
 654 896 l 6
 652 896 651 898 651 900 c 6
 765 1396 l 6
 765 1398 768 1400 770 1400 c 6
 777 1400 l 6
 779 1400 780 1398 781 1396 c 6
 869 910 l 261
 1164 1396 l 6
 1165 1398 1167 1400 1169 1400 c 6
 1177 1400 l 6
 1179 1400 1179 1398 1179 1396 c 6
 1065 900 l 6
 1065 898 1063 896 1061 896 c 6
 1057 896 l 6
 1055 896 1054 898 1054 900 c 6
 1164 1378 l 261
 876 900 l 6
 875 898 872 896 870 896 c 6
 863 896 l 6
 861 896 860 898 859 900 c 6
 772 1378 l 261
EndSplineSet
EndChar

StartChar: uniF8E8
Encoding: 63720 63720 453
Width: 986
Flags: HW
LayerCount: 2
Fore
SplineSet
520 1259 m 261
 466 1027 l 261
 639 1027 l 262
 706 1027 775 1061 791 1129 c 262
 793 1141 l 262
 811 1217 778 1259 693 1259 c 262
 520 1259 l 261
695 1270 m 262
 784 1270 822 1224 803 1141 c 262
 801 1132 l 262
 783 1056 723 1021 638 1021 c 261
 639 1025 l 261
 731 1025 769 1003 749 917 c 262
 741 884 l 262
 732 843 732 799 743 774 c 4
 745 770 744 769 744 768 c 6
 744 767 l 6
 744 766 743 766 741 766 c 6
 737 766 l 6
 735 766 734 766 733 769 c 4
 721 804 718 838 729 884 c 262
 737 917 l 262
 757 1003 715 1019 637 1019 c 262
 464 1019 l 261
 407 769 l 6
 407 767 404 766 402 766 c 6
 399 766 l 6
 397 766 396 767 396 769 c 6
 510 1266 l 6
 510 1268 513 1270 515 1270 c 6
 695 1270 l 262
1026 1016 m 4
 973 786 740 599 510 599 c 4
 280 599 137 786 190 1016 c 4
 243 1246 473 1435 703 1435 c 4
 933 1435 1079 1246 1026 1016 c 4
1008 1016 m 4
 1059 1237 920 1417 699 1417 c 4
 478 1417 259 1237 208 1016 c 4
 157 795 293 617 514 617 c 4
 735 617 957 795 1008 1016 c 4
EndSplineSet
EndChar

StartChar: uniF8E9
Encoding: 63721 63721 454
Width: 986
Flags: HW
LayerCount: 2
Fore
SplineSet
779 945 m 260
 755 856 661 753 546 753 c 260
 407 753 372 851 404 988 c 262
 418 1048 l 262
 450 1185 529 1282 668 1282 c 260
 711 1282 843 1270 809 1116 c 260
 808 1113 806 1112 804 1112 c 262
 801 1112 l 262
 799 1112 797 1113 798 1116 c 260
 819 1212 772 1271 669 1271 c 260
 533 1271 459 1178 429 1048 c 262
 415 988 l 262
 385 858 416 764 552 764 c 260
 637 764 739 843 769 945 c 260
 770 948 771 949 773 949 c 262
 777 949 l 262
 779 949 780 948 779 945 c 260
1026 1016 m 4
 973 786 740 599 510 599 c 4
 280 599 137 786 190 1016 c 4
 243 1246 473 1435 703 1435 c 4
 933 1435 1079 1246 1026 1016 c 4
1008 1016 m 4
 1059 1237 920 1417 699 1417 c 4
 478 1417 259 1237 208 1016 c 4
 157 795 293 617 514 617 c 4
 735 617 957 795 1008 1016 c 4
EndSplineSet
EndChar

StartChar: uni1E9E
Encoding: 7838 7838 457
Width: 1380
VWidth: 1920
Flags: HW
LayerCount: 2
Fore
SplineSet
352 1005 m 258
 418 1289 608 1434 898 1434 c 256
 1165 1434 1292 1332 1359 1198 c 256
 1371 1176 1373 1167 1349 1146 c 258
 792 692 l 257
 950 643 1233 569 1182 348 c 256
 1130 124 1000 -35 730 -35 c 256
 624 -35 533 -8 491 16 c 256
 468 29 459 33 461 41 c 262
 462 42 l 262
 465 56 481 59 502 46 c 256
 540 23 648 -5 737 -5 c 256
 993 -5 1107 151 1152 348 c 256
 1196 540 939 617 779 667 c 256
 752 677 750 686 777 710 c 258
 1341 1173 l 257
 1268 1305 1169 1404 891 1404 c 256
 622 1404 450 1278 382 985 c 258
 159 16 l 258
 156 3 148 -3 137 -3 c 258
 136 -3 l 258
 125 -3 121 3 124 16 c 258
 352 1005 l 258
EndSplineSet
EndChar
